<!-- Generated by IcoMoon.io -->
<svg version="1.1" xmlns="http://www.w3.org/2000/svg" width="32" height="32" viewBox="0 0 32 32">
<title>angellist</title>
<path d="M26.821 19.321c0-0.738-0.041-1.382-0.12-1.913-0.079-0.52-0.225-1.050-0.439-1.577-0.2-0.496-0.5-0.896-0.918-1.223-0.421-0.33-0.973-0.582-1.639-0.746l-0.443-0.109 0.154-0.429c0.939-2.611 1.654-4.755 2.121-6.377 0.461-1.591 0.695-2.704 0.695-3.305 0-0.388-0.054-0.746-0.163-1.066-0.105-0.313-0.264-0.598-0.475-0.85-0.409-0.489-0.961-0.727-1.684-0.727-0.332 0-0.961 0.021-1.35 0.377-0.439 0.4-0.773 0.825-1.12 1.391-0.359 0.584-0.695 1.446-1.039 2.311-0.436 1.091-0.607 1.675-0.846 2.316-0.243 0.65-0.504 1.361-0.775 2.112-0.273 0.754-0.448 1.232-0.52 1.423l-0.407 1.086-0.366-1.1c-0.023-0.070-0.070-0.205-0.141-0.404l-0.004-0.007c-1.141-3.418-1.946-5.586-2.92-7.782-0.384-0.866-0.689-1.343-1.096-1.746-0.355-0.352-1.121-0.566-1.398-0.566-0.805 0-1.504 0.227-1.912 0.732-0.211 0.259-0.37 0.561-0.477 0.898-0.109 0.346-0.164 0.741-0.164 1.173 0 0.584 0.293 1.73 0.766 3.373 0.48 1.671 1.266 3.904 2.229 6.634l0.289 0.821-0.818-0.3c-0.441-0.161-0.814-0.243-1.109-0.243-0.296 0-0.602 0.077-0.905 0.229-0.321 0.161-0.652 0.411-0.982 0.739-0.33 0.33-0.579 0.661-0.739 0.986-0.154 0.309-0.23 0.618-0.23 0.921 0 0.211 0.082 0.679 0.473 1.712l0.159 0.421-0.434 0.12c-0.516 0.143-0.966 0.336-1.336 0.575-0.359 0.23-0.652 0.511-0.873 0.834-0.225 0.329-0.396 0.716-0.511 1.152-0.118 0.448-0.177 0.962-0.177 1.525 0 0.85 0.155 1.688 0.459 2.489 0.307 0.807 0.777 1.604 1.395 2.368 0.625 0.77 1.314 1.438 2.050 1.984 0.734 0.545 1.536 0.986 2.382 1.309 1.28 0.48 2.571 0.723 3.838 0.723 0.873 0 1.721-0.080 2.518-0.238 0.795-0.157 1.563-0.396 2.282-0.711 0.721-0.314 1.391-0.691 1.993-1.12 0.6-0.427 1.15-0.916 1.632-1.457 0.486-0.543 0.923-1.143 1.3-1.788 0.379-0.645 0.707-1.35 0.977-2.096s0.475-1.534 0.611-2.339c0.141-0.804 0.209-1.652 0.209-2.518zM19.166 12.471l2.034-5.854c0.441-1.359 0.866-2.396 1.266-3.087 0.216-0.375 0.425-0.652 0.639-0.85 0.259-0.239 0.53-0.361 0.805-0.361 0.254 0 0.607 0.075 0.848 0.43 0.163 0.239 0.241 0.559 0.241 0.98 0 0.284-0.079 0.909-0.755 3.036-0.491 1.539-1.236 3.679-2.216 6.355l-0.118 0.325-2.902-0.521 0.157-0.454zM11.354 6.339c-0.491-1.605-0.729-2.691-0.729-3.321 0-0.309 0.079-0.604 0.232-0.873 0.191-0.336 0.502-0.52 0.875-0.52 0.255 0 0.507 0.123 0.75 0.366 0.191 0.193 0.384 0.462 0.586 0.827 0.377 0.673 0.796 1.688 1.248 3.014l2.366 6.862-0.627-0.052c-0.871-0.073-1.191-0.088-1.305-0.088-0.293 0-0.527 0.045-0.675 0.127l-0.416 0.232-0.168-0.446c-0.946-2.516-1.664-4.577-2.137-6.129zM9.782 15.45c0.387-0.411 0.752-0.611 1.111-0.611 0.454 0 0.923 0.23 1.393 0.688 0.418 0.405 0.811 0.921 1.168 1.534 0.343 0.591 0.634 1.136 0.864 1.62 0.229 0.48 0.423 0.92 0.58 1.305 0.539 1.316 0.602 1.759 0.602 1.977 0 0.27-0.104 0.523-0.309 0.754-0.271 0.307-0.564 0.371-0.762 0.371-0.291 0-0.614-0.127-0.986-0.387-0.323-0.227-0.684-0.552-1.098-0.993-0.8-0.85-1.523-1.791-2.148-2.798-0.67-1.075-0.982-1.82-0.982-2.337 0-0.35 0.186-0.718 0.568-1.121zM24.798 23.616c-0.468 1.316-1.18 2.511-2.118 3.552l-0.004 0.004c-0.477 0.523-0.989 0.989-1.525 1.382-0.536 0.395-1.109 0.729-1.702 0.993s-1.223 0.464-1.871 0.596c-0.646 0.132-1.329 0.198-2.029 0.198-0.97 0-1.902-0.129-2.773-0.382-0.873-0.254-1.707-0.641-2.479-1.15-0.773-0.509-1.454-1.125-2.025-1.83-0.57-0.704-1.043-1.514-1.407-2.411v-0.004c-0.32-0.805-0.475-1.462-0.475-2.009 0-0.621 0.182-1.238 0.541-1.829 0.193-0.318 0.423-0.564 0.684-0.73 0.275-0.175 0.582-0.262 0.916-0.262 0.373 0 0.921 0.259 2.404 2.139 1.463 1.855 1.65 2.495 1.65 2.843 0 0.168-0.061 0.484-0.463 0.72-0.236 0.137-0.464 0.209-0.68 0.209-0.425 0-0.879-0.186-1.346-0.552-0.423-0.33-0.88-0.827-1.359-1.471l-0.011-0.018c-0.052-0.077-0.223-0.305-0.732-0.936-0.118 0.186-0.177 0.37-0.177 0.546 0 0.413 0.111 0.829 0.329 1.241 0.229 0.43 0.58 0.866 1.048 1.296 0.47 0.434 0.939 0.761 1.393 0.975 0.438 0.205 0.877 0.309 1.302 0.309 0.543 0 1.005-0.179 1.412-0.546 0.395-0.357 0.588-0.779 0.588-1.293 0-0.184-0.016-0.25-0.020-0.262l-0.15-0.523h0.548c0.493 0 0.614-0.020 0.634-0.023l0.488-0.121 0.021 0.502c0.050 1.143 0.273 2.016 0.663 2.591 0.304 0.448 0.709 0.721 1.234 0.829l0.014-0.057c-0.007-0.227-0.071-0.646-0.309-1.389-0.236-0.732-0.35-1.291-0.35-1.705 0-0.898 0.289-1.798 0.863-2.671 0.554-0.846 1.239-1.568 2.038-2.141 0.416-0.313 0.993-0.598 1.761-0.875 0.636-0.243 1.113-0.491 1.42-0.738-0.045-0.245-0.12-0.434-0.22-0.564-0.111-0.13-0.234-0.188-0.396-0.188h-0.396c-0.177 0.012-0.375 0.018-0.586 0.018-0.214 0-0.448-0.005-0.698-0.018-0.486-0.023-0.996-0.048-1.516-0.071-0.545-0.025-1.093-0.096-1.632-0.214s-1.027-0.266-1.452-0.441c-0.466-0.191-0.854-0.471-1.152-0.832-0.32-0.386-0.48-0.834-0.48-1.336 0-0.227 0.025-0.409 0.075-0.557 0.077-0.225 0.207-0.346 0.321-0.412 0.229-0.179 0.582-0.262 1.104-0.262 1.386 0 3.034 0.161 4.9 0.479 1.945 0.332 3.246 0.804 3.979 1.445l0.004 0.004c0.296 0.266 0.52 0.67 0.666 1.196 0.134 0.488 0.207 0.879 0.22 1.2 0.012 0.289 0.018 0.698 0.018 1.214 0 1.573-0.236 3.036-0.702 4.346zM15.588 18.42l1.332 0.348 0.67 0.121 1.545 0.259-0.784 0.577c-0.379 0.279-0.784 0.661-1.204 1.137l-0.452 0.514-0.241-0.641-0.589-1.571-0.277-0.745z"></path>
</svg>
