<?xml version="1.0" encoding="utf-8"?>
<!-- Generator: Adobe Illustrator 22.1.0, SVG Export Plug-In . SVG Version: 6.00 Build 0)  -->
<svg version="1.1" id="Layer_1" xmlns="http://www.w3.org/2000/svg" xmlns:xlink="http://www.w3.org/1999/xlink" x="0px" y="0px"
	 viewBox="0 0 256 255.4" style="enable-background:new 0 0 256 255.4;" xml:space="preserve">
<g>
	<path d="M128.3,0.3C57.9,0.3,0.7,57.4,0.7,127.9s57.1,127.6,127.6,127.6s127.6-57.1,127.6-127.6S198.8,0.3,128.3,0.3z M128,241.7
		c-63,0-114-51-114-114s51-114,114-114s114,51,114,114S191,241.7,128,241.7z"/>
	<path d="M138.3,56.3c-1.4-3.5-4.3-5.4-7.9-5.4c-3.5,0-6.6,1.9-8.1,5.4l-55.7,134h19.1l22.1-55.3l65.8,53.2c2.6,2.1,4.6,3.1,7,3.1
		c5,0,9.3-3.7,9.3-9.1c0.1-0.8-0.2-2.2-0.8-3.7L138.3,56.3z M113.6,120.4l16.9-42.2l33,81.5L113.6,120.4z"/>
</g>
</svg>
