<!-- Generated by IcoMoon.io -->
<svg version="1.1" xmlns="http://www.w3.org/2000/svg" width="32" height="32" viewBox="0 0 32 32">
<title>beer</title>
<path d="M29.203 13.475c-0.45-0.45-1.081-0.731-1.769-0.731h-2.881v-2.669c1.031-0.869 1.694-2.169 1.694-3.625 0-2.606-2.125-4.731-4.731-4.731-0.462 0-0.919 0.069-1.356 0.2-0.938-0.731-2.106-1.144-3.331-1.144-0.594 0-1.169 0.094-1.719 0.281-0.938-0.681-2.075-1.056-3.269-1.056-1.275 0-2.5 0.438-3.475 1.212-0.438-0.125-0.888-0.188-1.35-0.188-2.725 0-4.95 2.225-4.95 4.956 0 1.831 1 3.438 2.487 4.294v20.488c0 0.688 0.563 1.25 1.25 1.25h17.506c0.688 0 1.25-0.563 1.25-1.25v-5.519h2.881c0.688 0 1.319-0.288 1.762-0.731 0.45-0.45 0.731-1.081 0.731-1.769v-7.5c0.006-0.688-0.281-1.319-0.731-1.769zM22.684 30.131h-16.256v-13.938h5.869c0.406 2.131 2.287 3.75 4.537 3.75s4.131-1.619 4.537-3.75h1.313v13.938zM6.428 14.319v-3.419c0.194 0.025 0.388 0.037 0.588 0.037 0.731 0 1.444-0.156 2.094-0.463 0.825 0.463 1.756 0.713 2.731 0.713 0.713 0 1.425-0.137 2.081-0.406 0.037 0.025 0.075 0.050 0.119 0.075 0.031 0.287-0.037 0.713-0.15 0.906-0.794 0.656-1.344 1.563-1.569 2.556h-5.894zM19.472 11.531c0.006-0.213 0.038-0.469 0.087-0.644 0.044-0.025 0.081-0.050 0.125-0.075 0.575 0.244 1.194 0.369 1.831 0.369 0.4 0 0.794-0.050 1.163-0.144v3.281h-1.344c-0.244-1.125-0.913-2.125-1.863-2.787zM21.522 9.306c-0.769 0-1.469-0.306-1.988-0.806-0.331 0.387-0.744 0.706-1.212 0.919v0c-0.825 0.575-0.95 3.031-0.35 3.4v0c0.95 0.431 1.606 1.387 1.606 2.5 0 1.519-1.231 2.744-2.744 2.744-1.519 0-2.744-1.231-2.744-2.744 0-0.906 0.438-1.706 1.119-2.206 0.844-0.85 0.981-2.887 0.213-3.656v0c-0.494-0.219-0.931-0.537-1.275-0.944-0.631 0.5-1.431 0.794-2.3 0.794-1.050 0-1.994-0.431-2.669-1.131-0.556 0.544-1.319 0.881-2.156 0.881-1.7 0-3.075-1.375-3.075-3.075s1.375-3.075 3.075-3.075c0.662 0 1.275 0.212 1.775 0.563 0.669-0.962 1.787-1.594 3.050-1.594 1.194 0 2.25 0.563 2.931 1.438 0.581-0.419 1.288-0.663 2.056-0.663 1.219 0 2.294 0.613 2.931 1.55 0.481-0.381 1.094-0.606 1.756-0.606 1.575 0 2.856 1.281 2.856 2.856s-1.281 2.856-2.856 2.856zM27.441 22.744h-2.881v-7.5h2.881v7.5z"></path>
</svg>
