<!-- Generated by IcoMoon.io -->
<svg version="1.1" xmlns="http://www.w3.org/2000/svg" width="32" height="32" viewBox="0 0 32 32">
<title>bitbucket</title>
<path d="M16.462 11.925c-0.137-0.012-0.275-0.025-0.413-0.025h-0.088c-0.137 0-0.281 0.006-0.412 0.025-1.731 0.194-2.869 1.181-3.194 2.787-0.219 1.088 0 2.075 0.631 2.862 0.694 0.869 1.825 1.406 3.025 1.431 1.194-0.025 2.325-0.563 3.025-1.431 0.631-0.788 0.85-1.781 0.631-2.863-0.344-1.6-1.475-2.594-3.206-2.787zM18.538 15.631c-0.031 1.094-0.7 2.263-2.137 2.406-0.094 0.012-0.188 0.012-0.281 0.012-0.038 0-0.069 0-0.113 0-0.037 0-0.075 0-0.119 0-0.094 0-0.188-0.006-0.281-0.012-1.438-0.144-2.113-1.313-2.137-2.406-0.031-1.088 0.6-2.363 2.050-2.588 0.162-0.025 0.319-0.037 0.475-0.037h0.031c0.15 0 0.313 0.012 0.475 0.037 1.437 0.225 2.062 1.5 2.037 2.588zM30.406 7.219c-0.006-0.981-0.044-1.919-0.431-2.688-0.419-0.844-1.262-1.525-2.731-2.206-1.131-0.525-2.313-0.9-2.913-1.075-2.175-0.637-4.088-0.838-6.294-0.944-0.688-0.031-1.369-0.050-2.025-0.056v0 0h-0.025c-0.656 0.006-1.331 0.025-2.025 0.056-2.206 0.106-4.119 0.306-6.3 0.944-0.6 0.175-1.775 0.55-2.913 1.075-1.469 0.681-2.306 1.362-2.725 2.206-0.381 0.769-0.419 1.713-0.431 2.688-0.025 3.344 0.681 6.031 1.306 8.406 0.069 0.25 0.131 0.5 0.194 0.75 0.063 0.231 0.119 0.481 0.181 0.744l0.006 0.025c0.231 1 0.469 2.031 0.987 2.875 0.112 0.181 0.237 0.356 0.381 0.525l0.15 0.181-0.094 0.212c-0.025 0.056-0.044 0.113-0.063 0.169l-0.138 0.413 0.044 0.431c0.063 0.663 0.213 1.962 0.463 3.262 0.325 1.675 0.706 2.738 1.225 3.438 0.456 0.619 1.181 1.156 2.219 1.644 0.719 0.337 1.563 0.637 2.369 0.844 1.594 0.406 3.281 0.613 5.012 0.613 0.050 0 0.106 0 0.156 0h0.006c0.050 0 0.106 0 0.156 0 1.731 0 3.419-0.206 5.012-0.613 0.813-0.206 1.65-0.506 2.369-0.844 1.031-0.488 1.756-1.025 2.219-1.644 0.519-0.7 0.894-1.756 1.225-3.438 0.256-1.3 0.4-2.6 0.462-3.262l0.044-0.431-0.137-0.413c-0.019-0.056-0.038-0.113-0.063-0.169l-0.094-0.212 0.15-0.181c0.144-0.169 0.269-0.344 0.381-0.525 0.519-0.844 0.756-1.875 0.988-2.875 0.063-0.275 0.125-0.531 0.188-0.775 0.063-0.25 0.131-0.5 0.2-0.75 0.625-2.369 1.331-5.056 1.306-8.4zM25.794 21.794c-0.106 1.087-0.519 4.725-1.369 5.869-0.675 0.913-2.619 1.6-3.663 1.869-1.462 0.369-3.012 0.556-4.606 0.556-0.056 0-0.106 0-0.156 0-0.056 0-0.106 0-0.156 0-1.594 0-3.144-0.188-4.606-0.556-1.044-0.262-2.988-0.956-3.662-1.869-0.85-1.144-1.263-4.781-1.369-5.869l-0.006-0.081 0.025-0.075c0-0.006 0.175-0.462 0.538-0.462 0.119 0 0.25 0.056 0.337 0.175 1.025 0.625 2.313 1.106 3.825 1.438 1.469 0.319 3.081 0.488 4.787 0.488 0.094 0 0.194 0 0.288 0h0.013c0.094 0 0.194 0 0.288 0 1.706 0 3.319-0.163 4.787-0.488 1.512-0.331 2.8-0.813 3.825-1.438 0.081-0.119 0.219-0.175 0.337-0.175 0.363 0 0.538 0.456 0.538 0.462l0.025 0.075-0.019 0.081zM27.494 15.194c-0.069 0.256-0.131 0.506-0.2 0.756-0.069 0.262-0.131 0.544-0.194 0.819-0.2 0.869-0.406 1.769-0.781 2.375-0.875 1.425-3.369 2.2-4.4 2.469-1.819 0.469-3.863 0.719-5.906 0.719h-0.025c-2.044 0-4.081-0.25-5.906-0.719-1.031-0.269-3.519-1.044-4.4-2.469-0.375-0.613-0.581-1.506-0.781-2.381-0.063-0.275-0.125-0.556-0.194-0.819-0.063-0.25-0.131-0.506-0.2-0.756-0.625-2.381-1.275-4.844-1.25-7.969 0.006-0.775 0.031-1.513 0.256-1.963 0.581-1.162 3.681-2.15 4.619-2.425 2.019-0.594 3.825-0.775 5.913-0.875 0.669-0.031 1.325-0.050 1.956-0.056v0 0c0.631 0.006 1.288 0.025 1.956 0.056 2.087 0.1 3.887 0.288 5.913 0.875 0.944 0.275 1.925 0.638 2.675 0.987 1.075 0.5 1.706 0.969 1.944 1.438 0.225 0.45 0.25 1.188 0.256 1.963 0.025 3.131-0.625 5.594-1.25 7.975zM23.231 5.681c-0.488-0.162-1.106-0.263-1.519-0.331-0.094-0.013-0.175-0.031-0.244-0.037-1.631-0.281-3.306-0.419-5.125-0.419-0.113 0-0.231 0-0.344 0v0h-0.006c-0.113 0-0.231 0-0.344 0-1.819 0-3.494 0.138-5.125 0.419-0.069 0.013-0.156 0.025-0.244 0.037-0.406 0.069-1.025 0.169-1.519 0.331-0.488 0.162-0.631 0.313-0.65 0.375 0.050 0.056 0.269 0.256 1.231 0.531 1.587 0.45 3.681 0.688 6.050 0.688 0.194 0 0.387 0 0.594-0.006h0.012c0.2 0.006 0.4 0.006 0.594 0.006 2.375 0 4.462-0.237 6.050-0.688 0.956-0.269 1.181-0.469 1.231-0.525-0.019-0.075-0.163-0.225-0.644-0.381z"></path>
</svg>
