<!-- Generated by IcoMoon.io -->
<svg version="1.1" xmlns="http://www.w3.org/2000/svg" width="32" height="32" viewBox="0 0 32 32">
<title>book</title>
<path d="M30.75 5h-2.75v-4c-0.663 0-1.288 0.012-1.875 0.038v0c-3.525 0.137-6.331 0.663-8.363 1.569-0.762 0.344-1.337 0.7-1.762 1.038-0.425-0.337-1-0.7-1.762-1.038-2.031-0.906-4.838-1.438-8.363-1.569v0c-0.588-0.025-1.213-0.038-1.875-0.038v4h-2.75c-0.688 0-1.25 0.563-1.25 1.25v21.5c0 0.688 0.563 1.25 1.25 1.25h11.287c0.694 1.194 1.981 2 3.463 2s2.769-0.806 3.462-2h11.288c0.688 0 1.25-0.563 1.25-1.25v-21.5c0-0.688-0.563-1.25-1.25-1.25zM16.938 5.3c0.156-0.15 0.344-0.294 0.563-0.425v0c1.144-0.756 3.587-1.763 8.625-1.962v18.25c-3.525 0.137-6.331 0.663-8.363 1.569-0.306 0.137-0.581 0.275-0.825 0.419v-17.85zM5.875 2.913c4.95 0.2 7.394 1.169 8.563 1.925v0c0.019 0.013 0.031 0.025 0.050 0.031 0.006 0 0.006 0.006 0.012 0.006v0c0.238 0.156 0.419 0.306 0.556 0.431v17.837c-0.244-0.137-0.519-0.281-0.825-0.419-2.031-0.906-4.838-1.438-8.363-1.569v-18.244h0.006zM30.125 27.125h-11.744l-0.544 0.938c-0.381 0.656-1.087 1.063-1.844 1.063s-1.462-0.406-1.844-1.063l-0.544-0.938h-11.731v-20.25h2.125v16.125c6.225 0 9.131 1.119 10.438 1.956v0c0.019 0.012 0.031 0.025 0.050 0.031 0.006 0 0.006 0.006 0.012 0.006v0c0.563 0.375 0.813 0.688 0.9 0.819 0.525 0.644 0.6 1.181 0.6 1.181 0-0.125 0.069-0.294 0.137-0.438 0.175-0.425 0.563-1.075 1.356-1.563v0c1.281-0.85 4.181-2 10.5-2v-16.119h2.125l0.006 20.25z"></path>
</svg>
