<!-- Generated by IcoMoon.io -->
<svg version="1.1" xmlns="http://www.w3.org/2000/svg" width="32" height="32" viewBox="0 0 32 32">
<title>briefcase</title>
<path d="M14.688 14.5c0 0.725 0.588 1.313 1.313 1.313s1.313-0.588 1.313-1.313c0-0.725-0.588-1.313-1.313-1.313s-1.313 0.588-1.313 1.313zM30.75 5.969h-9.813v-1.75c-0.006-1.212-0.975-2.181-2.188-2.188h-5.5c-1.206 0.006-2.181 0.975-2.188 2.188v1.75h-9.813c-0.688 0-1.25 0.563-1.25 1.25v21.5c0 0.688 0.563 1.25 1.25 1.25h29.5c0.688 0 1.25-0.563 1.25-1.25v-21.5c0-0.688-0.563-1.25-1.25-1.25zM12.938 4.219c0-0.088 0.031-0.156 0.094-0.219s0.137-0.094 0.219-0.094h5.5c0.087 0 0.156 0.031 0.219 0.094s0.094 0.138 0.094 0.219v1.75h-6.125v-1.75zM30.125 7.844v9.512c-0.444 0.163-1.125 0.306-2.125 0.3h-24c-0.925 0-1.575-0.119-2.019-0.262-0.038-0.012-0.075-0.025-0.106-0.038v-9.512h28.25zM1.875 28.094v-8.788c0.587 0.144 1.288 0.225 2.125 0.225 4 0 20 0 24 0 0.837 0 1.538-0.081 2.125-0.225v8.788h-28.25z"></path>
</svg>
