<!-- Generated by IcoMoon.io -->
<svg version="1.1" xmlns="http://www.w3.org/2000/svg" width="32" height="32" viewBox="0 0 32 32">
<title>certification</title>
<path d="M27.733 18.932c-0.32 0-0.533 0.213-0.533 0.533 0 1.173-0.96 2.133-2.133 2.133-0.32 0-0.533 0.213-0.533 0.533s0.213 0.533 0.533 0.533c1.76 0 3.2-1.44 3.2-3.2 0-0.32-0.213-0.533-0.533-0.533z"></path>
<path d="M25.6 16.799c0-0.32-0.213-0.533-0.533-0.533-1.76 0-3.2 1.44-3.2 3.2 0 0.32 0.213 0.533 0.533 0.533s0.533-0.213 0.533-0.533c0-1.173 0.96-2.133 2.133-2.133 0.32-0 0.533-0.213 0.533-0.533z"></path>
<path d="M31.467 1.866h-30.933c-0.32 0-0.533 0.213-0.533 0.533v23.467c0 0.32 0.213 0.533 0.533 0.533h21.867v3.2c0 0.213 0.107 0.427 0.32 0.48 0.213 0.107 0.427 0.053 0.587-0.107l1.76-1.76 1.76 1.76c0.107 0.107 0.213 0.16 0.373 0.16 0.053 0 0.16 0 0.267-0.053 0.213-0.053 0.32-0.267 0.32-0.48v-3.2h3.68c0.32 0 0.533-0.213 0.533-0.533v-23.467c0-0.32-0.213-0.533-0.533-0.533zM25.067 23.732c-1.020 0-1.959-0.363-2.695-0.966-0.032-0.026-0.063-0.053-0.094-0.081-0.008-0.007-0.017-0.014-0.025-0.021-0.711-0.632-1.204-1.482-1.381-2.426-0.004-0.022-0.008-0.043-0.012-0.065-0.006-0.033-0.011-0.066-0.016-0.099-0.007-0.050-0.014-0.101-0.019-0.152-0.002-0.021-0.004-0.042-0.006-0.063-0.004-0.048-0.008-0.096-0.011-0.145-0.001-0.019-0.002-0.038-0.003-0.058-0.003-0.064-0.005-0.128-0.005-0.192 0-2.347 1.92-4.267 4.267-4.267 0.064 0 0.128 0.002 0.192 0.005 0.019 0.001 0.039 0.002 0.058 0.003 0.047 0.003 0.095 0.007 0.142 0.011 0.026 0.002 0.052 0.005 0.078 0.008 0.045 0.005 0.090 0.011 0.135 0.017 0.038 0.005 0.075 0.011 0.112 0.018 0.014 0.002 0.027 0.005 0.041 0.007 1.288 0.237 2.402 1.069 3.028 2.277 0.019 0.038 0.043 0.072 0.070 0.102 0.262 0.552 0.41 1.169 0.41 1.818 0 2.347-1.92 4.267-4.267 4.267zM28.8 15.667c-0.904-0.889-2.12-1.46-3.464-1.528-0.089-0.005-0.179-0.007-0.269-0.007-2.933 0-5.333 2.4-5.333 5.333 0 0.090 0.002 0.18 0.007 0.269 0.068 1.344 0.639 2.56 1.528 3.464h-15.988c-0.213-1.067-1.013-1.867-2.080-2.080v-13.973c1.067-0.213 1.867-1.013 2.080-2.080h21.44c0.213 1.067 1.013 1.867 2.080 2.080v8.522zM26.667 28.319l-1.227-1.227c-0.107-0.107-0.213-0.16-0.373-0.16s-0.267 0.053-0.373 0.16l-1.227 1.227v-3.733c1.013 0.32 2.187 0.32 3.2 0v3.733zM30.933 25.332h-3.147v-1.285c1.561-0.933 2.613-2.64 2.613-4.582 0-0.829-0.192-1.616-0.533-2.317v-10.483c0-0.32-0.213-0.533-0.533-0.533-0.907 0-1.6-0.693-1.6-1.6 0-0.32-0.213-0.533-0.533-0.533h-22.4c-0.32 0-0.533 0.213-0.533 0.533 0 0.907-0.693 1.6-1.6 1.6-0.32 0-0.533 0.213-0.533 0.533v14.933c0 0.32 0.213 0.533 0.533 0.533 0.907 0 1.6 0.693 1.6 1.6 0 0.32 0.213 0.533 0.533 0.533h17.6v1.067h-21.333v-22.4h29.867v22.4z"></path>
<path d="M12.8 8.266h6.4c0.32 0 0.533-0.213 0.533-0.533s-0.213-0.533-0.533-0.533h-6.4c-0.32 0-0.533 0.213-0.533 0.533s0.213 0.533 0.533 0.533z"></path>
<path d="M24.533 9.866h-17.067c-0.32 0-0.533 0.213-0.533 0.533s0.213 0.533 0.533 0.533h17.067c0.32 0 0.533-0.213 0.533-0.533s-0.213-0.533-0.533-0.533z"></path>
<path d="M24.533 12.532h-17.067c-0.32 0-0.533 0.213-0.533 0.533s0.213 0.533 0.533 0.533h17.067c0.32 0 0.533-0.213 0.533-0.533s-0.213-0.533-0.533-0.533z"></path>
<path d="M18.133 15.199h-7.467c-0.32 0-0.533 0.213-0.533 0.533s0.213 0.533 0.533 0.533h7.467c0.32 0 0.533-0.213 0.533-0.533s-0.213-0.533-0.533-0.533z"></path>
<path d="M7.467 16.266h1.067c0.32 0 0.533-0.213 0.533-0.533s-0.213-0.533-0.533-0.533h-1.067c-0.32 0-0.533 0.213-0.533 0.533s0.213 0.533 0.533 0.533z"></path>
<path d="M11.733 17.866h-4.267c-0.32 0-0.533 0.213-0.533 0.533s0.213 0.533 0.533 0.533h4.267c0.32 0 0.533-0.213 0.533-0.533s-0.213-0.533-0.533-0.533z"></path>
<path d="M18.133 17.866h-4.267c-0.32 0-0.533 0.213-0.533 0.533s0.213 0.533 0.533 0.533h4.267c0.32 0 0.533-0.213 0.533-0.533s-0.213-0.533-0.533-0.533z"></path>
</svg>
