<?xml version="1.0" encoding="iso-8859-1"?>
<!-- Generator: Adobe Illustrator 19.0.0, SVG Export Plug-In . SVG Version: 6.00 Build 0)  -->
<svg version="1.1" id="Capa_1" xmlns="http://www.w3.org/2000/svg" xmlns:xlink="http://www.w3.org/1999/xlink" x="0px" y="0px"
	 viewBox="0 0 512 512" style="enable-background:new 0 0 512 512;" xml:space="preserve">
<g>
	<g>
		<path d="M436.008,331.992h-75.003v-15.001c0-22.531-16.651-41.242-38.282-44.502l-6.81-6.8
			c-9.34-9.34-14.911-23.171-14.911-37.002c0-15.781,7.73-31.421,20.691-41.832c24.981-20.081,39.312-49.922,39.312-81.874
			c0-57.815-47.468-106.07-107.005-104.963c-58.937,1.095-103.065,47.628-102.933,104.963c0.074,32.311,14.684,63.01,41.01,83.264
			c11.671,8.98,18.921,24.451,18.921,40.442c0,13.831-5.57,27.661-14.911,37.002l-6.81,6.8
			c-21.631,3.26-38.282,21.971-38.282,44.502v15.001H75.992c-24.811,0-45.002,20.191-45.002,45.002v60.003
			c0,8.28,6.72,15.001,15.001,15.001h15.001v15.001c0,24.811,20.191,45.002,45.002,45.002h300.013
			c24.811,0,45.002-20.191,45.002-45.002v-15.001h15.001c8.28,0,15.001-6.72,15.001-15.001v-60.003
			C481.01,352.182,460.819,331.992,436.008,331.992z M210.368,164.464c-18.574-14.287-28.88-35.121-29.371-57.609
			c-0.904-41.433,29.835-76.31,74.003-76.826c42.906-0.501,76.003,34.321,76.003,74.951c0,22.811-10.24,44.132-28.111,58.493
			c-19.971,16.051-31.891,40.422-31.891,65.213c0,15.421,4.27,30.481,12.031,43.302h-54.062
			c7.76-12.821,12.031-27.901,12.031-43.362C240.999,203.206,229.549,179.215,210.368,164.464z M180.997,316.991
			c0-8.27,6.73-15.001,15.001-15.001h120.005c8.27,0,15.001,6.73,15.001,15.001v15.001H180.997V316.991z M421.007,466.998
			c0,8.27-6.73,15.001-15.001,15.001H105.993c-8.27,0-15.001-6.73-15.001-15.001v-15.001h330.015V466.998z M451.009,421.996H60.991
			v-45.002c0-8.27,6.73-15.001,15.001-15.001h360.016c8.27,0,15.001,6.73,15.001,15.001V421.996z"/>
	</g>
</g>
<g>
</g>
<g>
</g>
<g>
</g>
<g>
</g>
<g>
</g>
<g>
</g>
<g>
</g>
<g>
</g>
<g>
</g>
<g>
</g>
<g>
</g>
<g>
</g>
<g>
</g>
<g>
</g>
<g>
</g>
</svg>
