<!-- Generated by IcoMoon.io -->
<svg version="1.1" xmlns="http://www.w3.org/2000/svg" width="32" height="32" viewBox="0 0 32 32">
<title>comments</title>
<path d="M14 0c7.731 0 14 5.487 14 12.25s-6.269 12.25-14 12.25c-1.206 0-2.381-0.131-3.5-0.387v0c-2.294 3.569-5.475 3.906-6.594 3.906-0.256 0-0.406-0.019-0.406-0.019 1.775-0.887 2.181-3.725 2.225-5.869-3.469-2.231-5.725-5.825-5.725-9.881 0-6.763 6.269-12.25 14-12.25zM14 1.644c-6.813 0-12.363 4.756-12.363 10.613 0 1.688 0.45 3.294 1.331 4.788 0.856 1.45 2.119 2.731 3.638 3.712l0.769 0.494-0.019 0.919c-0.025 1.231-0.144 2.319-0.369 3.262 0.813-0.525 1.525-1.262 2.125-2.194l0.619-0.969 1.119 0.25c1.019 0.231 2.075 0.344 3.137 0.344 6.813 0 12.363-4.756 12.363-10.613 0.006-5.85-5.537-10.606-12.35-10.606v0zM32 16.231c0-2.838-1.106-5.45-2.956-7.525 0.338 1.131 0.519 2.319 0.519 3.544 0 1.931-0.45 3.781-1.256 5.45s-1.962 3.15-3.375 4.387c-2.831 2.475-6.694 3.975-10.931 3.975-0.956 0-1.894-0.075-2.806-0.225-0.213 0.275-0.431 0.525-0.65 0.762 2.162 1.194 4.719 1.881 7.463 1.881 1.206 0 2.381-0.131 3.5-0.387v0c2.294 3.569 5.475 3.906 6.594 3.906 0.256 0 0.406-0.019 0.406-0.019-1.775-0.887-2.181-3.725-2.225-5.869 3.462-2.231 5.719-5.825 5.719-9.881z"></path>
</svg>
