<!-- Generated by IcoMoon.io -->
<svg version="1.1" xmlns="http://www.w3.org/2000/svg" width="32" height="32" viewBox="0 0 32 32">
<title>dribbble</title>
<path d="M31.988 16c0-8.838-7.163-16-15.994-16s-15.994 7.162-15.994 16c0 8.837 7.162 16 15.994 16s15.994-7.163 15.994-16v0 0 0zM23.031 28.269c-0.275-1.956-1.012-5.938-2.938-11.031 0.994-0.181 2.044-0.275 3.169-0.275 2 0 4.231 0.306 6.738 1.006-0.169 1.212-0.494 2.4-0.975 3.531-0.712 1.681-1.731 3.194-3.031 4.494-0.887 0.894-1.881 1.65-2.962 2.275zM6.919 26.844c1.862-2.462 3.913-4.863 6.4-6.669 1.481-1.069 3.106-1.938 4.963-2.5 0.519 1.363 0.956 2.65 1.313 3.831 0.769 2.519 1.2 4.587 1.444 6.012 0.119 0.688 0.188 1.225 0.231 1.6-1.675 0.675-3.45 1.019-5.281 1.019-1.912 0-3.762-0.375-5.506-1.113-1.294-0.55-2.487-1.281-3.562-2.181zM10.356 3.031c2.113 2.944 3.819 5.813 5.2 8.525-3.4 1.050-7.806 1.819-13.469 1.875 0.181-1 0.475-1.981 0.875-2.925 0.712-1.681 1.731-3.194 3.031-4.494 1.263-1.275 2.731-2.275 4.362-2.981zM20.956 9.281c-1.019 0.569-2.219 1.137-3.625 1.662-1.375-2.719-3.069-5.606-5.156-8.563 1.238-0.344 2.512-0.519 3.819-0.519v0c1.913 0 3.763 0.375 5.506 1.113 1.512 0.638 2.881 1.525 4.087 2.644-0.594 0.725-2 2.194-4.631 3.663zM1.869 15.287c6.094-0.037 10.85-0.881 14.519-2.044 0.438 0.925 0.837 1.825 1.2 2.7-2.006 0.631-3.781 1.575-5.356 2.725-2.669 1.938-4.787 4.419-6.669 6.887-1.1-1.194-1.975-2.556-2.606-4.050-0.737-1.744-1.113-3.587-1.113-5.5 0.006-0.244 0.012-0.481 0.025-0.719zM23.244 15.1c-1.363 0-2.644 0.131-3.844 0.375-0.381-0.919-0.794-1.869-1.256-2.844 1.506-0.575 2.8-1.2 3.9-1.825 2.556-1.463 4.069-2.938 4.831-3.831 0.887 1.063 1.606 2.25 2.15 3.531 0.738 1.744 1.113 3.588 1.113 5.5 0 0.025 0 0.050 0 0.075-2.5-0.669-4.781-0.975-6.869-0.975h-0.025v-0.006z"></path>
</svg>
