<!-- Generated by IcoMoon.io -->
<svg version="1.1" xmlns="http://www.w3.org/2000/svg" width="32" height="32" viewBox="0 0 32 32">
<title>envelope</title>
<path d="M30.75 4.5h-29.5c-0.688 0-1.25 0.563-1.25 1.25v20.5c0 0.688 0.563 1.25 1.25 1.25h29.5c0.688 0 1.25-0.563 1.25-1.25v-20.5c0-0.688-0.563-1.25-1.25-1.25zM30.125 21.956l-7.569-6.050 7.569-6.431v12.481zM30.125 6.375v0.638l-13.781 11.706c-0.069 0.056-0.2 0.113-0.344 0.113s-0.281-0.050-0.344-0.113l-13.781-11.706v-0.638h28.25zM9.444 15.9l-7.569 6.056v-12.481l7.569 6.425zM1.875 25.625v-1.269l9.025-7.213 3.537 3.006c0.456 0.387 1.012 0.556 1.563 0.556 0.544 0 1.1-0.169 1.563-0.556l3.538-3.006 9.025 7.213v1.269h-28.25z"></path>
</svg>
