<!-- Generated by IcoMoon.io -->
<svg version="1.1" xmlns="http://www.w3.org/2000/svg" width="32" height="32" viewBox="0 0 32 32">
<title>facebook</title>
<path d="M25.75 0h-19.5c-3.438 0-6.25 2.813-6.25 6.25v19.5c0 3.438 2.813 6.25 6.25 6.25h19.5c3.438 0 6.25-2.813 6.25-6.25v-19.5c0-3.438-2.813-6.25-6.25-6.25zM14.806 30.125h-8.556c-1.163 0-2.256-0.456-3.087-1.288s-1.288-1.925-1.288-3.087v-19.5c0-1.162 0.456-2.256 1.288-3.087s1.925-1.288 3.087-1.288h19.5c1.163 0 2.256 0.456 3.087 1.288s1.288 1.925 1.288 3.087v19.5c0 1.163-0.456 2.256-1.288 3.087s-1.925 1.288-3.087 1.288h-3.831zM22.644 31.681h-6.213v-11.7h-3.938v-6.063h3.938v-2.613c0-2.081 0.637-3.813 1.85-5.013 1.169-1.156 2.819-1.769 4.769-1.769 1.806 0 3.256 0.138 3.619 0.188l0.65 0.088v5.487h-3.163c-1.369 0-1.512 0.45-1.512 1.469v2.162h4.619l-0.781 6.062h-3.837v11.7zM17.931 30.175h3.206v-11.7h4.019l0.394-3.056h-4.413v-3.662c0-0.644 0.069-1.463 0.594-2.088 0.5-0.594 1.288-0.881 2.413-0.881h1.663v-2.65c-0.656-0.050-1.663-0.106-2.769-0.106-3.2 0-5.113 1.975-5.113 5.275v4.113h-3.938v3.056h3.938v11.7h0.006z"></path>
</svg>
