<!-- Generated by IcoMoon.io -->
<svg version="1.1" xmlns="http://www.w3.org/2000/svg" width="32" height="32" viewBox="0 0 32 32">
<title>github</title>
<path d="M28.725 2.994c0.163 0 0.244 0.006 0.244 0.006 1.25 2.425 0.25 6.656 0.25 6.656s2.781 1.919 2.781 7.35c0 10.969-10.219 12-16 12s-16-1.031-16-12c0-5.425 2.781-7.344 2.781-7.344s-1-4.231 0.25-6.656c0 0 0.087-0.006 0.244-0.006 0.788 0 3.4 0.206 6.725 2.663 0 0 1.387-0.656 6-0.656s6 0.656 6 0.656c3.319-2.456 5.931-2.669 6.725-2.669zM16 15.619c-2.238 0-5.012-0.613-6-0.613s-6 0.113-6 6c0 5.888 7.156 6.613 12 6.613s12-0.731 12-6.613c0-5.887-5.012-6-6-6s-3.762 0.613-6 0.613zM27.637 5c-1.012 0.213-2.619 0.756-4.519 2.169l-0.9 0.669-0.969-0.456c-0.163-0.056-1.556-0.5-5.244-0.5s-5.081 0.444-5.244 0.5l-0.969 0.456-0.9-0.669c-1.913-1.406-3.519-1.956-4.531-2.169-0.088 0.581-0.112 1.281-0.063 2.056 0.075 1.2 0.3 2.162 0.3 2.175l0.306 1.306-1.050 0.656c-0.087 0.075-0.538 0.463-0.975 1.256-0.656 1.2-1.006 2.775-1.006 4.556 0 1.031 0.1 1.981 0.306 2.856 0.5-4.938 4.275-6.725 7.819-6.725 0.531 0 1.25 0.106 2.156 0.238 1.175 0.169 2.631 0.381 3.844 0.381s2.669-0.213 3.844-0.381c0.913-0.131 1.631-0.238 2.156-0.238 3.544 0 7.319 1.794 7.819 6.725 0.206-0.869 0.306-1.825 0.306-2.856 0-2.375-0.613-3.887-1.125-4.744-0.425-0.713-0.844-1.056-0.85-1.056l-1.050-0.725 0.294-1.25c0-0.012 0.225-0.969 0.3-2.175 0.050-0.775 0.031-1.475-0.056-2.056v0zM7.856 20.619c0 0 0 0 0 0 0 1.243 0.672 2.25 1.5 2.25s1.5-1.007 1.5-2.25c0 0 0 0 0 0s0 0 0 0c0-1.243-0.672-2.25-1.5-2.25s-1.5 1.007-1.5 2.25c0 0 0 0 0 0zM21.144 20.619c0 1.243 0.672 2.25 1.5 2.25s1.5-1.007 1.5-2.25c0-1.243-0.672-2.25-1.5-2.25s-1.5 1.007-1.5 2.25z"></path>
</svg>
