<!-- Generated by IcoMoon.io -->
<svg version="1.1" xmlns="http://www.w3.org/2000/svg" width="32" height="32" viewBox="0 0 32 32">
<title>google-plus</title>
<path d="M16.269 16.403c-0.125-0.094-0.25-0.188-0.375-0.288-0.094-0.075-0.194-0.15-0.287-0.219-0.119-0.088-0.288-0.213-0.444-0.344-0.1-0.081-0.194-0.162-0.256-0.231 0.063-0.069 0.162-0.162 0.262-0.25 0.162-0.144 0.35-0.294 0.488-0.4 0.319-0.25 0.65-0.519 0.956-0.831 1.194-1.219 1.881-2.569 2.012-4.006 0.025-0.25 0.038-0.506 0.038-0.75 0-1.050-0.212-2.050-0.637-2.975v0c0.269-0.231 0.481-0.487 0.656-0.694 0.044-0.050 0.106-0.125 0.119-0.144 0.038-0.037 0.094-0.094 0.156-0.156 0.387-0.375 1.069-1.019 1.075-2 0-0.075-0.006-0.15-0.012-0.231l-0.188-1.7-0.175 0.006-1.538 0.075c-0.45 0.025-0.925 0.031-1.456 0.031-0.781 0-1.556-0.025-2.313-0.044h-0.031c-0.762-0.025-1.556-0.050-2.337-0.050v0c-0.719 0-1.356 0.019-1.938 0.063-1.956 0.144-3.769 0.844-5.25 2.025-1.488 1.188-2.506 2.8-2.875 4.544-0.081 0.406-0.106 0.962-0.106 1.419 0 0.306 0.012 0.569 0.019 0.7 0.144 1.85 0.956 3.544 2.288 4.769 1.050 0.963 2.356 1.581 3.825 1.831 0 0.019 0.006 0.044 0.006 0.063-1.531 0.225-2.931 0.719-4.138 1.456-1.788 1.094-3.013 2.663-3.531 4.519-0.15 0.525-0.219 1.056-0.219 1.581 0 1.281 0.431 2.525 1.256 3.5 1.656 1.962 4.894 3.144 8.469 3.144 0.825 0 1.637-0.063 2.431-0.194 1.406-0.231 3.438-0.775 5.15-2.125 1.706-1.337 2.644-3.156 2.694-5.219 0-0.087 0.006-0.175 0.006-0.262 0-1.631-0.4-3.012-1.219-4.181-0.731-1.031-1.681-1.744-2.581-2.431zM18.075 23.259c-0.044 1.581-0.794 2.8-1.931 3.7s-2.675 1.469-4.231 1.719c-0.694 0.113-1.406 0.169-2.113 0.169-2.888 0.006-5.681-0.925-6.944-2.438-0.475-0.563-0.781-1.331-0.781-2.206 0-0.337 0.044-0.688 0.15-1.050 0.388-1.375 1.319-2.538 2.656-3.356s3.081-1.3 5.075-1.3c0.262 0 0.525 0.006 0.787 0.025l0.606 0.038-0.488-0.369c-0.444-0.331-0.938-1.231-0.931-2.087 0-0.4 0.1-0.794 0.35-1.125l0.238-0.325-0.4 0.031c-0.212 0.019-0.419 0.025-0.619 0.025-1.688 0-3.044-0.556-4.013-1.438s-1.544-2.1-1.644-3.444c-0.006-0.113-0.013-0.313-0.013-0.531 0-0.369 0.019-0.819 0.063-1.025 0.55-2.638 3.119-4.75 6.312-4.987 0.588-0.044 1.188-0.056 1.794-0.056 0.756 0 1.525 0.025 2.306 0.050s1.575 0.050 2.375 0.050c0.425 0 0.85-0.006 1.275-0.025-0.031 0.044-0.069 0.094-0.119 0.144-0.137 0.15-0.319 0.306-0.469 0.469-0.125 0.131-0.275 0.325-0.438 0.5-0.156 0.175-0.325 0.313-0.413 0.331-0.106 0.031-0.219 0.044-0.331 0.044-0.144 0-0.294-0.019-0.463-0.037s-0.35-0.037-0.55-0.037c-0.125 0-0.256 0.006-0.4 0.031l-0.425 0.063 0.344 0.263c1.15 0.894 1.975 2.256 1.975 4.044 0 0.181-0.006 0.369-0.025 0.563-0.106 1.181-0.794 2.125-1.45 2.787-0.319 0.325-0.775 0.656-1.2 1.012s-0.825 0.744-1.012 1.231c-0.088 0.225-0.131 0.444-0.131 0.656 0 0.581 0.313 1.044 0.688 1.419s0.825 0.681 1.163 0.937c0.894 0.688 1.75 1.281 2.369 2.069 0.625 0.788 1.031 1.762 1.031 3.262-0.019 0.056-0.019 0.131-0.025 0.206zM13.144 12.966c0.5-0.563 0.775-1.325 0.844-2.125 0.019-0.206 0.025-0.412 0.025-0.619 0-1.325-0.369-2.581-0.938-3.606-0.575-1.019-1.35-1.806-2.2-2.181-0.356-0.156-0.863-0.25-1.356-0.25-0.156 0-0.306 0.006-0.45 0.031-1.275 0.169-1.981 0.981-2.375 1.869-0.313 0.694-0.456 1.438-0.456 2.181 0 1.4 0.5 2.806 1.337 3.863s2.019 1.781 3.375 1.781c0.019 0 0.037 0 0.056 0 0.919-0.012 1.644-0.375 2.138-0.944zM12 10.666c-0.025 0.3-0.1 0.625-0.256 0.856s-0.369 0.381-0.762 0.394c-0.006 0-0.019 0-0.025 0-0.519 0-0.95-0.225-1.3-0.506-0.344-0.281-0.594-0.619-0.725-0.819-0.456-0.706-0.694-1.531-0.694-2.313 0-0.487 0.094-0.956 0.281-1.375 0.131-0.287 0.256-0.45 0.381-0.544s0.262-0.138 0.444-0.169c0.044-0.006 0.106-0.013 0.175-0.013 0.137 0 0.269 0.013 0.369 0.031s0.175 0.044 0.188 0.050c0.344 0.15 0.912 0.631 1.356 1.506 0.387 0.756 0.594 1.613 0.594 2.456-0.006 0.15-0.012 0.294-0.025 0.444zM14.331 20.622c-0.244-0.181-0.6-0.456-0.963-0.712-0.369-0.256-0.738-0.494-1.050-0.606-0.519-0.181-1.319-0.219-1.875-0.219-0.1 0-0.188 0-0.269 0.006-1.688 0.050-2.838 0.488-3.781 1.175-0.763 0.544-1.662 1.613-1.787 2.819-0.013 0.15-0.025 0.294-0.025 0.438 0 1.456 0.781 2.581 1.912 3.319 1.131 0.744 2.613 1.119 4.075 1.119 1.381 0 2.75-0.331 3.788-1.038 1.037-0.7 1.738-1.794 1.738-3.238 0-0.175-0.012-0.356-0.031-0.544-0.144-1.2-1.094-2.038-1.731-2.519zM13.656 24.903c-0.556 0.631-1.75 1.056-3.088 1.056-1.469 0.006-2.869-0.506-3.525-1.244-0.313-0.35-0.463-0.731-0.463-1.194 0-0.075 0.006-0.15 0.013-0.231 0.019-0.212 0.15-0.494 0.331-0.756s0.419-0.5 0.638-0.656c0.513-0.369 1.206-0.75 2.669-0.794 0.063 0 0.131 0 0.206 0 0.313 0 0.587 0.019 0.8 0.038 0.2 0.019 0.35 0.050 0.4 0.069 0.094 0.038 0.344 0.2 0.587 0.369 0.244 0.175 0.494 0.363 0.631 0.462 0.106 0.081 0.2 0.15 0.287 0.212 0.287 0.212 0.519 0.431 0.675 0.625 0.156 0.2 0.244 0.375 0.256 0.5 0.012 0.113 0.019 0.219 0.019 0.325-0 0.5-0.144 0.888-0.438 1.219zM29.831 4.272h-0.931v-0.931c0-1.163-0.944-2.106-2.106-2.106h-0.881c-1.163 0-2.106 0.944-2.106 2.106v0.931h-0.931c-1.163 0-2.106 0.944-2.106 2.106v0.881c0 1.163 0.944 2.106 2.106 2.106h0.931v0.931c0 1.162 0.944 2.106 2.106 2.106h0.881c1.163 0 2.106-0.944 2.106-2.106v-0.931h0.931c1.163 0 2.106-0.944 2.106-2.106v-0.881c0-1.156-0.944-2.106-2.106-2.106zM30.113 7.266c0 0.15-0.125 0.281-0.281 0.281h-2.113c-0.356 0-0.65 0.294-0.65 0.65v2.112c0 0.15-0.125 0.281-0.281 0.281h-0.881c-0.15 0-0.281-0.125-0.281-0.281v-2.113c0-0.356-0.288-0.65-0.65-0.65h-2.113c-0.15 0-0.281-0.125-0.281-0.281v-0.881c0-0.15 0.125-0.281 0.281-0.281h2.113c0.356 0 0.65-0.294 0.65-0.65v-2.112c0-0.15 0.125-0.281 0.281-0.281h0.881c0.15 0 0.281 0.125 0.281 0.281v2.112c0 0.356 0.288 0.65 0.65 0.65h2.113c0.15 0 0.281 0.125 0.281 0.281v0.881z"></path>
</svg>
