<!-- Generated by IcoMoon.io -->
<svg version="1.1" xmlns="http://www.w3.org/2000/svg" width="32" height="32" viewBox="0 0 32 32">
<title>hand</title>
<path d="M28.6 7.387c-0.217-0.101-0.447-0.155-0.663-0.155-0.312 0-0.571 0.109-0.734 0.306-0.96 1.169-1.839 3.443-2.548 5.269-0.326 0.845-0.762 1.975-1.058 2.506-0.162-1.555 0.536-7.162 0.805-9.321l0.004-0.035c0.187-1.5 0.216-1.763 0.207-1.88-0.072-0.835-0.364-1.4-0.867-1.679-0.509-0.282-1.201-0.222-1.967 0.172-0.385 0.198-0.542 0.961-1.102 4.427l-0.003 0.016c-0.308 1.904-1.019 6.289-1.563 6.99-0.486-1.067-0.844-6.963-0.999-9.515-0.108-1.787-0.172-2.813-0.241-3.127-0.146-0.657-0.914-1.261-1.71-1.347-0.662-0.079-1.232 0.222-1.533 0.793-0.525 0.51-0.479 2.327-0.24 6.639 0.114 2.052 0.349 6.291-0.017 6.74-0.658-0.119-1.614-2.831-2.839-8.061-0.344-1.465-0.451-1.906-0.575-2.105-0.223-0.676-1.102-1.247-1.925-1.247-0.070 0-0.139 0.004-0.207 0.012-0.435 0.056-1.441 0.384-1.36 2.229 0.4 2.578 0.898 4.485 1.381 6.336l0.010 0.037c0.289 1.109 0.562 2.156 0.803 3.314 0.568 2.735 0.158 4.378 0.153 4.397-0.037 0.169-0.097 0.271-0.179 0.301-0.030 0.011-0.067 0.017-0.108 0.017-0.24 0-0.588-0.184-0.766-0.301-0.366-0.841-2.199-4.853-4.067-5.523l-0.067-0.025-0.070 0.002c-0.705 0.018-1.237 0.248-1.583 0.683-0.549 0.688-0.407 1.623-0.37 1.81l0.023 0.069c0.013 0.029 1.347 2.935 1.492 4.253 0.126 1.131 1.097 2.414 1.877 3.446l0.032 0.042c0.254 0.338 0.474 0.629 0.645 0.897 2.281 2.751 6.023 5.193 6.054 5.213 0.46 0.393 0.706 0.761 0.713 1.062 0.004 0.198-0.105 0.308-0.109 0.312l-0.091 0.083 0.502 0.563 0.093-0.080c0.037-0.032 0.365-0.331 0.362-0.872-0.002-0.537-0.344-1.1-1.021-1.676-0.037-0.024-3.749-2.469-5.891-5.047-0.171-0.274-0.433-0.619-0.685-0.953-0.686-0.907-1.626-2.151-1.728-3.072-0.153-1.375-1.379-4.098-1.535-4.44-0.019-0.138-0.084-0.746 0.23-1.138 0.19-0.237 0.503-0.369 0.934-0.393 1.674 0.697 3.587 5.139 3.606 5.184l0.040 0.094 0.082 0.063c0.114 0.084 0.716 0.502 1.298 0.502 0.134 0 0.259-0.021 0.371-0.064 0.232-0.087 0.534-0.303 0.651-0.834 0.019-0.072 0.459-1.805-0.148-4.728-0.241-1.169-0.521-2.239-0.816-3.371l-0.005-0.017c-0.476-1.821-0.968-3.704-1.361-6.22-0.036-0.842 0.214-1.34 0.704-1.403 0.558-0.079 1.248 0.397 1.325 0.759l0.055 0.254 0.060 0.009c0.103 0.339 0.3 1.178 0.43 1.739 1.111 4.733 2.15 8.651 3.62 8.651 0.12 0 0.295-0.035 0.454-0.203 0.604-0.637 0.508-3.199 0.278-7.344-0.112-2.008-0.32-5.744-0.029-6.020l0.107-0.060 0.051-0.111c0.139-0.298 0.37-0.449 0.689-0.449 0.039 0 0.078 0.002 0.114 0.007 0.467 0.051 0.978 0.418 1.053 0.757 0.058 0.26 0.134 1.512 0.222 2.959l0.003 0.049c0.502 8.281 0.834 10.303 1.689 10.303 0.97 0 1.445-1.927 2.38-7.718l0.004-0.024c0.23-1.419 0.575-3.552 0.729-3.865 0.502-0.251 0.958-0.313 1.222-0.168 0.335 0.185 0.446 0.684 0.479 1.065 0.001 0.103-0.102 0.934-0.202 1.738-0.908 7.29-1.038 9.791-0.537 10.293 0.133 0.132 0.321 0.189 0.489 0.15 0.511-0.108 0.849-0.877 1.758-3.229 0.686-1.774 1.539-3.982 2.424-5.057 0.008-0.008 0.050-0.030 0.143-0.030 0.108 0 0.232 0.030 0.35 0.084 0.22 0.103 0.441 0.303 0.395 0.557-0.231 1.27-1.27 4.816-2.031 7.405-0.657 2.24-0.928 3.178-0.95 3.429 0 0.047-0.020 4.711-1.776 10.321l-0.58 1.96 0.727 0.215 0.578-1.954c1.752-5.599 1.809-10.472 1.807-10.506 0.018-0.178 0.518-1.879 0.922-3.252l0.011-0.035c0.801-2.739 1.801-6.146 2.038-7.451 0.101-0.56-0.221-1.102-0.822-1.38z"></path>
</svg>
