<!-- Generated by IcoMoon.io -->
<svg version="1.1" xmlns="http://www.w3.org/2000/svg" width="32" height="32" viewBox="0 0 32 32">
<title>instagram</title>
<path d="M28.875 0h-25.75c-1.719 0-3.125 1.406-3.125 3.125v25.75c0 1.719 1.406 3.125 3.125 3.125h25.75c1.719 0 3.125-1.406 3.125-3.125v-25.75c0-1.719-1.406-3.125-3.125-3.125zM24.406 3.531c0-0.688 0.563-1.25 1.25-1.25h2.813c0.688 0 1.25 0.563 1.25 1.25v2.813c0 0.688-0.563 1.25-1.25 1.25h-2.813c-0.688 0-1.25-0.563-1.25-1.25v-2.813zM10.719 12.188c1.356-1.35 3.219-2.188 5.281-2.188s3.925 0.838 5.281 2.188c1.35 1.356 2.188 3.219 2.188 5.281v0c0 2.063-0.837 3.925-2.188 5.281-1.356 1.35-3.219 2.188-5.281 2.188s-3.925-0.837-5.281-2.188c-1.35-1.356-2.188-3.219-2.188-5.281 0-2.069 0.838-3.931 2.188-5.281zM30.125 28.875c0 0.675-0.575 1.25-1.25 1.25h-25.75c-0.675 0-1.25-0.575-1.25-1.25v-15.375h5.662c-0.569 1.206-0.881 2.55-0.881 3.969 0 5.163 4.181 9.344 9.344 9.344s9.344-4.181 9.344-9.344c0-1.419-0.319-2.762-0.881-3.969h5.663v15.375z"></path>
</svg>
