<!-- Generated by IcoMoon.io -->
<svg version="1.1" xmlns="http://www.w3.org/2000/svg" width="32" height="32" viewBox="0 0 32 32">
<title>link</title>
<path d="M16.306 18.569l-1.325 1.325 0.5 0.5c0.287 0.288 0.444 0.675 0.444 1.087s-0.156 0.8-0.444 1.087l-7.113 7.113c-0.287 0.288-0.675 0.444-1.087 0.444s-0.8-0.156-1.088-0.444l-3.875-3.875c-0.288-0.288-0.444-0.675-0.444-1.087s0.156-0.8 0.444-1.087l7.119-7.113c0.287-0.288 0.675-0.444 1.087-0.444s0.8 0.156 1.088 0.444l0.5 0.5 1.325-1.325-0.5-0.5c-0.662-0.662-1.537-0.994-2.412-0.994s-1.75 0.331-2.412 0.994l-7.119 7.113c-1.325 1.325-1.325 3.5 0 4.825l3.875 3.875c0.662 0.663 1.537 0.994 2.412 0.994s1.75-0.331 2.412-0.994l7.113-7.113c1.325-1.325 1.325-3.5 0-4.825l-0.5-0.5zM31.006 4.869l-3.875-3.875c-0.663-0.662-1.538-0.994-2.413-0.994s-1.75 0.331-2.413 0.994l-7.112 7.112c-1.325 1.325-1.325 3.5 0 4.825l0.5 0.5 1.325-1.325-0.5-0.5c-0.288-0.287-0.444-0.675-0.444-1.088s0.156-0.8 0.444-1.088l7.113-7.112c0.288-0.288 0.675-0.444 1.087-0.444s0.8 0.156 1.087 0.444l3.875 3.875c0.288 0.287 0.444 0.675 0.444 1.087s-0.156 0.8-0.444 1.088l-7.112 7.113c-0.288 0.287-0.675 0.444-1.087 0.444s-0.8-0.156-1.087-0.444l-0.5-0.5-1.325 1.325 0.5 0.5c0.663 0.663 1.538 0.994 2.413 0.994s1.75-0.331 2.413-0.994l7.113-7.113c1.325-1.325 1.325-3.5-0-4.825zM9.338 22.663c-0.369-0.369-0.369-0.962 0-1.325v0l12-12c0.369-0.369 0.962-0.369 1.325 0v0c0.369 0.369 0.369 0.963 0 1.325v0l-12 12c-0.181 0.181-0.425 0.275-0.662 0.275v0c-0.238-0-0.481-0.094-0.662-0.275v0z"></path>
</svg>
