<!-- Generated by IcoMoon.io -->
<svg version="1.1" xmlns="http://www.w3.org/2000/svg" width="32" height="32" viewBox="0 0 32 32">
<title>linkedin</title>
<path d="M10.875 9.044c0 1.006-0.744 1.825-1.969 1.825-1.156 0-1.9-0.819-1.9-1.825 0-1.031 0.769-1.825 1.944-1.825 1.181-0.006 1.9 0.788 1.925 1.825zM7.1 24.413v-11.75h3.65v11.75h-3.65zM13.688 16.413c0-1.469-0.050-2.694-0.094-3.75h3.169l0.169 1.631h0.075c0.481-0.769 1.656-1.9 3.631-1.9 2.4 0 4.206 1.613 4.206 5.069v6.944h-3.65v-6.5c0-1.512-0.531-2.55-1.85-2.55-1.006 0-1.613 0.694-1.875 1.369-0.094 0.238-0.119 0.575-0.119 0.913v6.775h-3.65l-0.012-8zM25.75 0c3.438 0 6.25 2.813 6.25 6.25v19.5c0 3.438-2.813 6.25-6.25 6.25h-19.5c-3.438 0-6.25-2.813-6.25-6.25v-19.5c0-3.438 2.813-6.25 6.25-6.25h19.5zM25.75 1.875h-19.5c-1.162 0-2.256 0.456-3.087 1.288s-1.288 1.925-1.288 3.087v19.5c0 1.163 0.456 2.256 1.288 3.087s1.925 1.288 3.087 1.288h19.5c1.163 0 2.256-0.456 3.087-1.288s1.288-1.925 1.288-3.087v-19.5c0-1.162-0.456-2.256-1.288-3.087s-1.925-1.288-3.087-1.288v0z"></path>
</svg>
