<!-- Generated by IcoMoon.io -->
<svg version="1.1" xmlns="http://www.w3.org/2000/svg" width="32" height="32" viewBox="0 0 32 32">
<title>map-marker</title>
<path d="M15.491 31.875c-0.144-0.056-0.262-0.119-0.375-0.194v0c-0.225-0.15-0.412-0.319-0.606-0.525v0c-0.387-0.406-0.781-0.925-1.206-1.563v0c-0.85-1.262-1.806-2.975-2.756-4.887v0c-1.906-3.825-3.775-8.419-4.544-11.775v0c-0.219-0.963-0.35-1.825-0.35-2.588v0c-0.006-5.706 4.631-10.344 10.344-10.344v0c5.712 0 10.35 4.631 10.35 10.35v0c0 0.906-0.188 1.963-0.488 3.156v0c-0.3 1.188-0.725 2.506-1.225 3.875v0c-1.006 2.738-2.325 5.688-3.619 8.2v0c-0.863 1.675-1.719 3.15-2.475 4.25v0c-0.438 0.631-0.837 1.137-1.238 1.519v0c-0.219 0.2-0.438 0.375-0.738 0.506v0c-0.156 0.063-0.344 0.119-0.563 0.119v0c-0.2 0-0.369-0.044-0.512-0.1v0zM10.028 4.381c-1.531 1.531-2.475 3.638-2.475 5.969v0c0 0.631 0.144 1.575 0.419 2.662v0c0.275 1.088 0.675 2.338 1.15 3.65v0c0.956 2.625 2.237 5.494 3.487 7.931v0c0.831 1.619 1.656 3.050 2.344 4.063v0c0.394 0.575 0.75 1.019 0.994 1.262v0c0.012 0.012 0.031 0.031 0.044 0.044v0c0.038-0.031 0.075-0.069 0.113-0.113v0c0.262-0.269 0.613-0.725 1-1.3v0c0.775-1.156 1.712-2.819 2.637-4.675v0c1.856-3.712 3.694-8.262 4.394-11.35v0c0.2-0.875 0.306-1.631 0.3-2.169v0c0-2.338-0.944-4.438-2.475-5.969v0c-1.525-1.538-3.625-2.481-5.962-2.481v0c-2.337 0-4.437 0.944-5.969 2.475v0zM10.406 10.35c0-3.094 2.506-5.594 5.594-5.594v0c3.094 0 5.594 2.506 5.594 5.594v0c0 3.094-2.506 5.594-5.594 5.594v0c-3.094 0-5.594-2.5-5.594-5.594v0zM13.387 7.737c-0.669 0.669-1.081 1.587-1.081 2.612v0c0 1.025 0.413 1.938 1.081 2.612v0c0.669 0.669 1.587 1.081 2.613 1.081v0c1.025 0 1.938-0.412 2.613-1.081v0c0.669-0.669 1.081-1.588 1.081-2.613v0c0-1.025-0.413-1.938-1.081-2.612v0c-0.669-0.669-1.587-1.081-2.613-1.081v0c-1.025 0-1.938 0.412-2.613 1.081v0z"></path>
</svg>
