<!-- Generated by IcoMoon.io -->
<svg version="1.1" xmlns="http://www.w3.org/2000/svg" width="32" height="32" viewBox="0 0 32 32">
<title>medal</title>
<path d="M30.407 26.256l-6.599-6.599 2.669-0.971c0.228-0.083 0.363-0.317 0.321-0.556l-0.715-4.055 2.059-3.566c0.121-0.21 0.074-0.476-0.111-0.632l-3.154-2.647-0.715-4.055c-0.042-0.238-0.249-0.412-0.491-0.412h-4.117l-3.154-2.647c-0.186-0.156-0.456-0.156-0.642 0l-3.154 2.647h-4.117c-0.242 0-0.449 0.174-0.491 0.412l-0.715 4.055-3.154 2.647c-0.186 0.156-0.232 0.422-0.111 0.632l2.059 3.566-0.715 4.055c-0.042 0.238 0.093 0.473 0.321 0.556l2.556 0.93-6.64 6.64c-0.137 0.137-0.183 0.342-0.116 0.524s0.233 0.309 0.427 0.326l4.095 0.341 0.341 4.095c0.016 0.194 0.143 0.36 0.326 0.427 0.056 0.021 0.114 0.030 0.172 0.030 0.13 0 0.258-0.051 0.353-0.146l8.808-8.808 8.808 8.808c0.095 0.095 0.223 0.146 0.353 0.146 0.058 0 0.116-0.010 0.172-0.030 0.182-0.067 0.309-0.233 0.326-0.427l0.341-4.095 4.095-0.341c0.194-0.016 0.36-0.143 0.427-0.326s0.022-0.387-0.116-0.524zM7.247 30.387l-0.287-3.444c-0.020-0.243-0.213-0.436-0.456-0.456l-3.444-0.287 6.209-6.209 0.278 0.101 2.059 3.566c0.091 0.158 0.258 0.25 0.432 0.25 0.057 0 0.114-0.010 0.171-0.030l2.433-0.886-7.394 7.395zM16.484 21.556l-0.236-0.086c-0.11-0.040-0.231-0.040-0.341 0l-3.646 1.327-1.94-3.36c-0.059-0.102-0.151-0.179-0.261-0.219l-3.646-1.327 0.674-3.821c0.020-0.116-0.001-0.235-0.059-0.336l-1.94-3.361 2.973-2.494c0.090-0.075 0.15-0.18 0.171-0.295l0.674-3.821h3.88c0.117 0 0.231-0.041 0.321-0.117l2.973-2.494 2.973 2.494c0.090 0.075 0.203 0.117 0.321 0.117h3.88l0.674 3.821c0.020 0.115 0.081 0.22 0.171 0.295l2.973 2.494-1.94 3.361c-0.059 0.102-0.080 0.221-0.059 0.336l0.674 3.821-3.646 1.327c-0.11 0.040-0.203 0.118-0.261 0.219l-1.94 3.36-3.409-1.241c-0-0-0.001-0-0.001-0zM25.496 26.488c-0.243 0.020-0.436 0.213-0.456 0.456l-0.287 3.444-7.483-7.483 2.675 0.974c0.056 0.020 0.114 0.030 0.171 0.030 0.174 0 0.341-0.091 0.432-0.25l2.059-3.566 0.165-0.060 6.168 6.168-3.444 0.287z"></path>
<path d="M16 4.283c-4.384 0-7.95 3.566-7.95 7.95s3.566 7.95 7.95 7.95c4.384 0 7.95-3.566 7.95-7.95s-3.566-7.95-7.95-7.95zM16 19.185c-3.834 0-6.952-3.119-6.952-6.952s3.119-6.952 6.952-6.952c3.833 0 6.952 3.119 6.952 6.952s-3.119 6.952-6.952 6.952z"></path>
<path d="M21.743 10.644c-0.067-0.206-0.258-0.345-0.475-0.345h-3.683l-1.138-3.502c-0.067-0.206-0.258-0.345-0.475-0.345s-0.408 0.139-0.475 0.345l-1.138 3.502h-3.683c-0.216 0-0.408 0.139-0.475 0.345s0.006 0.431 0.181 0.558l2.979 2.165-1.138 3.502c-0.067 0.206 0.006 0.431 0.181 0.558 0.087 0.064 0.19 0.095 0.293 0.095s0.206-0.032 0.293-0.095l2.979-2.165 2.979 2.165c0.175 0.127 0.412 0.127 0.587 0s0.248-0.352 0.181-0.558l-1.138-3.502 2.979-2.165c0.175-0.127 0.248-0.352 0.181-0.558zM17.702 12.772c-0.175 0.127-0.248 0.352-0.181 0.558l0.775 2.387-2.030-1.475c-0.175-0.127-0.412-0.127-0.587 0l-2.030 1.475 0.775-2.387c0.067-0.206-0.006-0.431-0.181-0.558l-2.030-1.475h2.51c0.216 0 0.408-0.139 0.475-0.345l0.775-2.387 0.775 2.387c0.067 0.206 0.258 0.345 0.475 0.345h2.51l-2.030 1.475z"></path>
</svg>
