<!-- Generated by IcoMoon.io -->
<svg version="1.1" xmlns="http://www.w3.org/2000/svg" width="32" height="32" viewBox="0 0 32 32">
<title>phone</title>
<path d="M24.438 31.925c-0.119-0.031-6.85-1.744-14.738-9.625v0c-7.881-7.887-9.594-14.619-9.625-14.738v0c-0.056-0.219-0.075-0.431-0.075-0.644v0c0-0.412 0.081-0.813 0.225-1.194v0c0.144-0.375 0.344-0.737 0.65-1.044v0 0l4.094-4.1c0.369-0.375 0.875-0.588 1.381-0.581v0c0.594-0.006 1.181 0.294 1.55 0.794v0l4.356 5.813c0.213 0.281 0.35 0.594 0.444 0.912v0c0.094 0.319 0.137 0.656 0.137 0.988v0c0 0.35-0.050 0.706-0.188 1.056v0l-1.044 2.644c-0.025 0.063-0.044 0.162-0.044 0.281v0c0 0.137 0.031 0.3 0.081 0.438v0c0.050 0.137 0.125 0.244 0.175 0.3v0l6.956 6.956c0.050 0.056 0.163 0.125 0.3 0.175v0c0.137 0.050 0.3 0.081 0.437 0.081v0c0.119 0 0.225-0.019 0.281-0.044v0l2.644-1.044c0.35-0.137 0.706-0.188 1.056-0.188v0c0.331 0 0.669 0.050 0.988 0.137v0c0.319 0.094 0.631 0.231 0.913 0.444v0l5.813 4.356c0.5 0.369 0.794 0.956 0.794 1.55v0c0 0.506-0.206 1.006-0.581 1.381v0l-4.1 4.094c-0.306 0.3-0.663 0.506-1.044 0.65v0c-0.381 0.144-0.781 0.219-1.194 0.225v0c-0.212 0-0.425-0.025-0.644-0.075v0zM25.644 30.106c0.188-0.069 0.344-0.169 0.413-0.244v0l4.1-4.1c0.056-0.063 0.056-0.094 0.063-0.119v0c-0.006-0.031 0-0.056-0.075-0.119v0l-5.813-4.356c-0.063-0.050-0.194-0.113-0.344-0.156v0c-0.15-0.044-0.331-0.069-0.488-0.069v0c-0.169 0-0.319 0.031-0.4 0.063v0l-2.644 1.044c-0.313 0.125-0.631 0.169-0.944 0.169v0c-0.363 0-0.719-0.069-1.062-0.194v0c-0.337-0.125-0.663-0.313-0.938-0.587v0l-6.956-6.95c-0.275-0.275-0.462-0.6-0.587-0.938v0c-0.125-0.338-0.194-0.7-0.194-1.063v0c0-0.313 0.050-0.631 0.169-0.944v0l1.044-2.644c0.031-0.081 0.063-0.231 0.063-0.4v0c0-0.162-0.025-0.338-0.069-0.488v0c-0.044-0.15-0.106-0.275-0.156-0.344v0l-4.356-5.813c-0.063-0.075-0.094-0.075-0.119-0.075v0c-0.025 0-0.056 0.006-0.119 0.063v0l-4.094 4.1c-0.069 0.069-0.175 0.225-0.244 0.406v0c-0.069 0.188-0.106 0.4-0.106 0.569v0c0 0.088 0.006 0.156 0.019 0.206v0 0 0.006c0 0.006 0.006 0.025 0.012 0.044v0c0.012 0.044 0.031 0.106 0.056 0.2v0c0.056 0.181 0.144 0.45 0.275 0.8v0c0.263 0.706 0.694 1.731 1.363 3v0c1.344 2.537 3.638 6.044 7.444 9.85v0c7.481 7.481 13.8 9.137 13.919 9.169v0 0 0 0c0.050 0.012 0.119 0.025 0.206 0.019v0c0.163-0 0.381-0.038 0.563-0.106v0z"></path>
</svg>
