<!-- Generated by IcoMoon.io -->
<svg version="1.1" xmlns="http://www.w3.org/2000/svg" width="32" height="32" viewBox="0 0 32 32">
<title>pushpin</title>
<path d="M22 14v-8h2c0 0 0.038-2.825 0.038-4s-0.038-2-2.038-2-6 0-6 0-4 0-6 0-2.119 1.050-2.044 2 0.044 4 0.044 4h2.025l-0.025 8-6 6h8.669l2.412 11.256c0.094 0.431 0.475 0.744 0.919 0.744s0.825-0.313 0.919-0.744l2.413-11.256h8.669l-6-6zM9.881 4.125c-0.006-0.844-0.019-1.75-0.050-2.244 0.050-0.006 0.106-0.006 0.169-0.006h12c0.056 0 0.113 0 0.163 0 0 0.044 0 0.087 0 0.125 0 0.513-0.006 1.35-0.012 2.125h-12.269zM16 26.587l-1.412-6.587h2.825l-1.413 6.587zM8.525 18.125l3.344-3.344v-0.775l0.025-8v-0.006h8.231v8.775l3.35 3.35h-14.95z"></path>
</svg>
