<!-- Generated by IcoMoon.io -->
<svg version="1.1" xmlns="http://www.w3.org/2000/svg" width="1024" height="1024" viewBox="0 0 1024 1024">
<title>bitbucket</title>
<g id="icomoon-ignore">
</g>
<path fill="#000" d="M1003.6 814c-10-42.8-32.202-73.8-33-75.2l-1.8-2.602-456.8-384.198c33.4-61.6 35.2-128.4 4.798-194.4-22.398-48.6-55.2-81.2-62.2-88-48.198-55.4-165.198-63.6-230.998-63.6-17.4 0-28.4 0.6-28.8 0.6-10 0.6-19 7-22.798 16.6-3.8 9.4-1.6 20.2 5.6 27.6l119 122.4-4.8 114.4-114.402 1.6-119-122.6c-7.202-7.4-17.8-9.8-27.4-6.4s-16.2 12.2-17.2 22.4c-0.2 2-4 48.8 0.202 103.4 5.798 76.4 24.4 129.6 55.2 158 10.6 11.8 83.202 89 185.202 89v0c32.6 0 64.798-8 95.798-23.8l378 460.8 2.4 1.8c1.2 1 31.798 24 74.2 35.2 16 4.2 31.4 6.4 46.4 6.4 40.6 0 77.6-15.4 108.6-45.6 42.798-41 57.798-94.4 43.798-153.8zM254.4 481c-83.8 0-146.4-71.4-147-72.2-0.8-0.8-1.602-1.8-2.4-2.6-29-25.8-39.6-97-41-159.2l84 86.4c5 5.2 11.798 8 19 7.8l150.2-2.2c13.8-0.2 25-11.2 25.6-24.8l6.4-150c0.4-7.2-2.4-14.2-7.4-19.2l-83.8-86.2c78.6 3.6 136.6 20 157.798 45.4 0.8 0.8 1.602 1.8 2.4 2.6 0.4 0.2 32 29.4 52 73.8 25 55.6 21 109.4-12.2 160.2l-117.8 114.4c-27.798 17.2-56.798 25.8-85.798 25.8v0zM923.8 930.8c-64.4 62.6-144.798 11.6-159.4 1.6l-372.6-454.4 87.8-85.4 450.4 379c10.2 15.4 58 96.8-6.2 159.2z"></path>
</svg>
