<!-- Generated by IcoMoon.io -->
<svg version="1.1" xmlns="http://www.w3.org/2000/svg" width="32" height="32" viewBox="0 0 32 32">
<title>skype</title>
<path d="M18.044 14.65c-1.156-0.313-4.875-0.738-5-2.25-0.163-2.019 2.831-2.15 4.25-1.563 1.25 0.519 1.863 2.050 3.25 2.063 0.869 0.006 1.65-0.556 1.75-1.375 0.194-1.581-1.406-2.662-2.625-3.188-1.444-0.625-3.581-0.869-5.063-0.75-1.244 0.1-2.506 0.425-3.438 1.125-1.375 1.031-2.575 3.494-1.5 5.688 0.744 1.506 2.769 2.288 4.5 2.75 1.569 0.419 4.769 0.619 4.875 2.375 0.113 1.9-2.531 2.688-4.438 2-1.644-0.594-2.106-2.938-3.875-2.813-0.65 0.044-1.106 0.538-1.25 1-0.444 1.438 0.731 2.75 1.5 3.313 2.162 1.575 6.519 1.913 9 0.625 1.719-0.894 2.906-2.613 2.75-4.875-0.169-2.519-2.212-3.45-4.688-4.125zM10.028 4.147v0c0.55 0 1.119 0.075 1.675 0.225 0.206 0.056 0.431 0.169 0.675 0.294 0.387 0.2 0.825 0.419 1.338 0.481 0.131 0.019 0.269 0.025 0.406 0.025 0.387 0 0.75-0.063 1.063-0.119 0.256-0.044 0.5-0.088 0.725-0.088 0.056 0 0.106 0 0.163 0 1.788 0 3.438 0.381 4.906 1.131 1.206 0.612 2.312 1.487 3.3 2.6 1.356 1.525 2.938 4.119 2.75 7.788-0.006 0.087-0.038 0.238-0.069 0.381-0.069 0.337-0.163 0.75-0.119 1.2 0.056 0.544 0.319 1.012 0.538 1.387 0.106 0.181 0.212 0.375 0.256 0.5 0.387 1.25 0.363 2.556-0.081 3.781-0.387 1.087-1.087 2.069-1.962 2.762-0.512 0.406-1.906 1.35-3.825 1.35-0.531 0-1.069-0.075-1.594-0.219-0.131-0.038-0.319-0.144-0.506-0.25-0.35-0.206-0.788-0.456-1.325-0.525-0.106-0.013-0.219-0.019-0.331-0.019-0.35 0-0.675 0.063-0.962 0.119-0.188 0.038-0.369 0.075-0.5 0.081-0.181 0.006-0.363 0.012-0.538 0.012-1.637 0-3.163-0.313-4.531-0.931-1.169-0.531-2.262-1.3-3.25-2.288-1.194-1.194-2.069-2.519-2.6-3.938-0.65-1.731-0.813-3.669-0.494-5.762l0.050-0.319-0.144-0.287c-0.594-1.188-0.956-2-0.95-3.363 0.006-1.544 0.631-3.075 1.719-4.206 1.125-1.163 2.619-1.806 4.219-1.806zM10.028 3.147c-3.931 0-6.925 3.294-6.938 7.013-0.006 1.619 0.45 2.6 1.063 3.813-0.75 4.919 1.081 8.269 3.375 10.563 1.956 1.956 4.669 3.512 8.488 3.512 0.188 0 0.381-0.006 0.575-0.012 0.45-0.019 0.95-0.2 1.425-0.2 0.069 0 0.137 0.006 0.2 0.013 0.6 0.075 1.119 0.594 1.688 0.75 0.637 0.181 1.262 0.256 1.863 0.256 1.825 0 3.4-0.731 4.45-1.569 1.931-1.538 3.356-4.469 2.375-7.625-0.169-0.544-0.694-1.113-0.75-1.688-0.050-0.494 0.169-1.025 0.188-1.438 0.194-3.719-1.294-6.581-3-8.5-1.875-2.112-4.7-4.063-8.95-4.063-0.056 0-0.119 0-0.175 0-0.606 0.006-1.181 0.206-1.775 0.206-0.094 0-0.194-0.006-0.287-0.019-0.619-0.075-1.2-0.569-1.875-0.75-0.662-0.181-1.313-0.263-1.938-0.263v0z"></path>
</svg>
