<?xml version="1.0" encoding="utf-8"?>
<!-- Generator: Adobe Illustrator 22.1.0, SVG Export Plug-In . SVG Version: 6.00 Build 0)  -->
<svg version="1.1" id="Capa_1" xmlns="http://www.w3.org/2000/svg" xmlns:xlink="http://www.w3.org/1999/xlink" x="0px" y="0px"
	 viewBox="0 0 512 512" style="enable-background:new 0 0 512 512;" xml:space="preserve">
<style type="text/css">
	.st0{fill:none;}
</style>
<g>
	<path class="st0" d="M218,340h-88v60c0,24.3,19.7,44,44,44h32c6.6,0,12-5.4,12-12V340z"/>
	<path class="st0" d="M380,432v-92h-86v124c0,6.6,5.4,12,12,12h30C360.3,476,380,456.3,380,432z"/>
	<circle class="st0" cx="336" cy="224" r="32"/>
	<circle class="st0" cx="176" cy="224" r="32"/>
	<path d="M176,164c-33.1,0-60,26.9-60,60s26.9,60,60,60s60-26.9,60-60S209.1,164,176,164z M176,260c-19.9,0-36-16.1-36-36
		s16.1-36,36-36s36,16.1,36,36S195.9,260,176,260z"/>
	<path d="M276,224c0,33.1,26.9,60,60,60s60-26.9,60-60s-26.9-60-60-60S276,190.9,276,224z M336,188c19.9,0,36,16.1,36,36
		s-16.1,36-36,36s-36-16.1-36-36S316.2,188,336,188z"/>
	<path d="M507,280c4.4-4.9,3.9-12.5-1-17c-2.2-2-5-3-8-3c-3.4,0-6.7,1.5-9,4c-2,2.2-4.1,4.4-6.2,6.5l-6.8,6.6v-9.5V80
		c0-41.9-34.1-76-76-76H112C70.1,4,36,38.1,36,80v189.6v11.3l-7.1-8.8c-1.7-2.2-3.4-4.4-4.8-6.6c-2.2-3.5-6-5.5-10.1-5.5
		c-2.3,0-4.5,0.7-6.4,1.9c-2.7,1.8-4.6,4.4-5.3,7.6c-0.7,3.1-0.1,6.3,1.6,9c24.6,38.1,67.3,49.1,90.6,52.2l3.5,0.5v3.5V400
		c0,41.9,34.1,76,76,76h32c24.3,0,44-19.7,44-44V320c0-6.6-5.4-12-12-12H110c-0.2,0-23.8-0.3-47.7-11L60,296v-2.6V80
		c0-28.7,23.3-52,52-52h288c28.7,0,52,23.3,52,52v210.2v2.5l-2.2,1.1c-23.4,11.7-44,13.9-47.9,14.2l-0.2,0h-0.2H274
		c-6.6,0-12,5.4-12,12v144c0,24.3,19.7,44,44,44h32c41.9,0,76-34.1,76-76v-98.1v-3.3l3.2-0.6C437.7,326,476.5,314.3,507,280z
		 M122,336v-4h4h96h4v4v96c0,11-9,20-20,20h-32c-28.7,0-52-23.3-52-52V336z M390,336v96c0,28.7-23.3,52-52,52h-32c-11,0-20-9-20-20
		V336v-4h4h96h4V336z"/>
</g>
</svg>
