<!-- Generated by IcoMoon.io -->
<svg version="1.1" xmlns="http://www.w3.org/2000/svg" width="32" height="32" viewBox="0 0 32 32">
<title>stackoverflow</title>
<path d="M2.775 31.938c-0.25 0-0.487-0.1-0.663-0.275v0c-0.175-0.175-0.275-0.419-0.275-0.663v0-11.906c0-0.519 0.419-0.938 0.938-0.938v0c0.519 0 0.938 0.419 0.938 0.938v0 10.969h20.031v-10.969c0-0.519 0.419-0.938 0.938-0.938v0c0.519 0 0.938 0.419 0.938 0.938v0 11.906c0 0.244-0.1 0.488-0.275 0.663v0c-0.175 0.175-0.419 0.275-0.663 0.275v0h-21.906zM7.463 23.813c-0.519 0-0.938-0.419-0.938-0.938v0c0-0.519 0.419-0.938 0.938-0.938v0h12c0.519 0 0.938 0.419 0.938 0.938v0c0 0.519-0.419 0.938-0.938 0.938v0h-12zM19.656 20.694l-11.419-3.681c-0.494-0.156-0.762-0.688-0.606-1.181v0c0.156-0.494 0.687-0.762 1.181-0.606v0l11.419 3.681c0.494 0.156 0.762 0.688 0.606 1.181v0c-0.125 0.4-0.494 0.65-0.894 0.65v0c-0.094 0.006-0.187-0.012-0.288-0.044v0zM20.8 17.794l-9.738-7.012c-0.419-0.3-0.512-0.887-0.212-1.306v0c0.3-0.419 0.887-0.519 1.306-0.213v0l9.738 7.012c0.419 0.3 0.519 0.887 0.212 1.306v0c-0.181 0.256-0.469 0.387-0.762 0.387v0c-0.188 0-0.375-0.056-0.544-0.175v0zM22.781 15.375l-7.119-9.656c-0.306-0.419-0.219-1.006 0.2-1.313v0c0.419-0.306 1.006-0.219 1.313 0.2v0l7.119 9.663c0.306 0.419 0.219 1.006-0.2 1.313v0c-0.169 0.125-0.363 0.181-0.556 0.181v0c-0.294 0-0.575-0.137-0.756-0.387v0zM25.4 13.688l-3.806-11.381c-0.163-0.494 0.1-1.025 0.594-1.188v0c0.494-0.162 1.025 0.1 1.188 0.594v0l3.806 11.381c0.163 0.494-0.1 1.025-0.594 1.188v0c-0.1 0.031-0.2 0.050-0.3 0.050v0c-0.387-0.006-0.756-0.25-0.887-0.644v0zM28.288 12.938v-12c0-0.519 0.419-0.938 0.938-0.938v0c0.519 0 0.938 0.419 0.938 0.938v0 12c0 0.519-0.419 0.938-0.938 0.938v0c-0.519 0-0.938-0.419-0.938-0.938v0z"></path>
</svg>
