<!-- Generated by IcoMoon.io -->
<svg version="1.1" xmlns="http://www.w3.org/2000/svg" width="32" height="32" viewBox="0 0 32 32">
<title>stackshare</title>
<path d="M4.48 2.56c-1.406 0-2.56 1.154-2.56 2.56v21.76c0 1.406 1.154 2.56 2.56 2.56h23.040c1.406 0 2.56-1.154 2.56-2.56v-21.76c0-1.406-1.154-2.56-2.56-2.56h-23.040zM4.48 3.84h23.040c0.715 0 1.28 0.565 1.28 1.28v21.76c0 0.715-0.565 1.28-1.28 1.28h-23.040c-0.715 0-1.28-0.565-1.28-1.28v-21.76c0-0.715 0.565-1.28 1.28-1.28zM23.040 7.040c-1.541 0-2.836 1.104-3.135 2.56h-2.625c-0 0-0 0-0.001 0-0.239 0-0.448 0.131-0.558 0.326l-0.002 0.003-3.018 5.431h-1.607c-0.299-1.456-1.594-2.56-3.135-2.56-1.76 0-3.2 1.44-3.2 3.2s1.44 3.2 3.2 3.2c1.541 0 2.836-1.104 3.135-2.56h1.607l3.018 5.431c0.112 0.198 0.32 0.329 0.559 0.329 0 0 0.001 0 0.001 0h2.625c0.299 1.456 1.594 2.56 3.135 2.56 1.76 0 3.2-1.44 3.2-3.2s-1.44-3.2-3.2-3.2c-1.541 0-2.836 1.104-3.135 2.56h-2.249l-2.844-5.12 2.844-5.12h2.249c0.299 1.456 1.594 2.56 3.135 2.56 1.76 0 3.2-1.44 3.2-3.2s-1.44-3.2-3.2-3.2zM23.040 8.32c1.068 0 1.92 0.852 1.92 1.92s-0.852 1.92-1.92 1.92c-1.068 0-1.92-0.852-1.92-1.92s0.852-1.92 1.92-1.92zM8.96 14.080c1.068 0 1.92 0.852 1.92 1.92s-0.852 1.92-1.92 1.92c-1.068 0-1.92-0.852-1.92-1.92s0.852-1.92 1.92-1.92zM23.040 19.84c1.068 0 1.92 0.852 1.92 1.92s-0.852 1.92-1.92 1.92c-1.068 0-1.92-0.852-1.92-1.92s0.852-1.92 1.92-1.92z"></path>
</svg>
