<!-- Generated by IcoMoon.io -->
<svg version="1.1" xmlns="http://www.w3.org/2000/svg" width="32" height="32" viewBox="0 0 32 32">
<title>tags</title>
<path d="M14.65 31.106l-7.969-9.294c-0.394-0.456-0.581-1.031-0.581-1.594v0c0-0.625 0.231-1.256 0.706-1.738v0l11.119-11.119c0.406-0.406 0.931-0.713 1.488-0.944v0c0.556-0.231 1.144-0.381 1.719-0.381v0h8.538c1.281 0 2.325 1.044 2.325 2.325v0 6.875c0 0.575-0.156 1.163-0.381 1.719v0c-0.231 0.556-0.544 1.081-0.944 1.488v0l-12.781 12.788c-0.431 0.431-1 0.656-1.563 0.656v0h-0.006c-0.619 0-1.238-0.275-1.669-0.781v0zM20 7.831c-0.413 0.169-0.794 0.413-0.994 0.612v0l-11.119 11.125c-0.163 0.163-0.263 0.406-0.256 0.656v0c0 0.225 0.075 0.438 0.213 0.6v0l7.963 9.294c0.15 0.175 0.331 0.244 0.519 0.25v0c0.169 0 0.337-0.063 0.488-0.206v0l12.787-12.787c0.206-0.2 0.45-0.581 0.613-0.994v0c0.169-0.406 0.269-0.85 0.269-1.137v0-6.875c0-0.219-0.087-0.412-0.238-0.563v0c-0.15-0.15-0.344-0.237-0.563-0.237v0h-8.544c-0.006 0-0.006 0-0.012 0v0c-0.281-0.006-0.719 0.094-1.125 0.263v0zM23.837 11.556c0-1.406 1.137-2.544 2.544-2.544v0c1.406 0 2.544 1.137 2.544 2.544v0c0 1.406-1.137 2.544-2.544 2.544v0c-1.406 0-2.544-1.137-2.544-2.544v0zM25.363 11.556c0 0.563 0.456 1.019 1.019 1.019v0c0.563 0 1.019-0.456 1.019-1.019v0c0-0.563-0.456-1.019-1.019-1.019v0c-0.563 0.006-1.019 0.463-1.019 1.019v0zM23.575 0h-8.544c-0.569 0-1.156 0.156-1.719 0.381-0.556 0.231-1.081 0.544-1.488 0.944l-11.119 11.125c-0.475 0.475-0.706 1.113-0.706 1.738 0 0.563 0.188 1.131 0.581 1.594l2.581 3.012c0.144-0.55 0.369-1.075 0.675-1.556l-2.1-2.45c-0.137-0.156-0.212-0.369-0.212-0.6 0-0.25 0.094-0.494 0.256-0.656l11.125-11.125c0.2-0.206 0.581-0.45 0.994-0.613 0.4-0.169 0.838-0.269 1.125-0.269 0.006 0 0.006 0 0.012 0h8.537c0.219 0 0.413 0.087 0.563 0.238s0.238 0.344 0.238 0.563v0.587h1.525v-0.587c-0.006-1.281-1.044-2.325-2.325-2.325z"></path>
</svg>
