<!-- Generated by IcoMoon.io -->
<svg version="1.1" xmlns="http://www.w3.org/2000/svg" width="32" height="32" viewBox="0 0 32 32">
<title>thumbs-up</title>
<path d="M27.688 20.544c0.194-0.2 0.431-0.481 0.613-0.863 0.163-0.337 0.269-0.75 0.269-1.206 0-0.65-0.25-1.194-0.538-1.587-0.294-0.394-0.625-0.669-0.869-0.856-0.006-0.006-0.012-0.006-0.012-0.012 0.006-0.025 0.012-0.050 0.012-0.075 0.056-0.281 0.113-0.656 0.113-1.063 0-0.325-0.081-0.637-0.219-0.956-0.144-0.319-0.35-0.637-0.644-0.931-0.587-0.588-1.519-1.012-2.7-1.006-0.95 0-2.138 0.156-3.269 0.319-1.125 0.169-2.181 0.35-2.731 0.419-0.15 0.019-0.269 0.025-0.275 0.025-0.063 0.006-0.225-0.050-0.344-0.162s-0.175-0.244-0.175-0.369c0-0.588 0.194-1.181 0.506-1.863 0.306-0.681 0.719-1.425 1.012-2.3 0.2-0.588 0.337-1.237 0.337-1.95 0-0.731-0.2-1.419-0.531-2s-0.794-1.075-1.375-1.4c-0.388-0.206-0.831-0.344-1.306-0.344h-0.006c-0.287 0-0.575 0.056-0.825 0.163-0.256 0.106-0.469 0.269-0.637 0.444-0.338 0.356-0.488 0.756-0.569 1.1-0.050 0.231-0.075 0.444-0.075 0.638 0 1.069-0.419 2.031-1.1 2.963s-1.613 1.787-2.506 2.581c-0.6 0.525-1.181 1.019-1.675 1.512-0.637 0.637-1 1.35-1.294 1.969-0.294 0.625-0.538 1.162-0.825 1.544-0.194 0.256-0.406 0.45-0.7 0.613-0.388 0.212-0.975 0.375-1.919 0.375v1.875c0.981 0 1.788-0.144 2.463-0.431s1.194-0.719 1.569-1.194c0.25-0.313 0.45-0.644 0.619-0.962 0.225-0.425 0.4-0.838 0.587-1.213 0.244-0.5 0.494-0.919 0.838-1.262 0.619-0.619 1.575-1.387 2.537-2.287 0.956-0.906 1.931-1.95 2.588-3.231 0.431-0.85 0.719-1.813 0.719-2.869 0-0.081 0.019-0.231 0.056-0.325 0.037-0.1 0.075-0.125 0.075-0.125 0.006 0 0.012-0.013 0.1-0.013 0.113 0 0.238 0.031 0.387 0.112s0.306 0.213 0.45 0.394c0.288 0.35 0.488 0.862 0.488 1.369 0 0.694-0.206 1.338-0.506 2.031s-0.706 1.412-1.006 2.244c-0.2 0.556-0.344 1.169-0.344 1.838 0 0.706 0.319 1.313 0.75 1.725 0.438 0.412 1 0.681 1.638 0.681 0.169 0 0.319-0.019 0.506-0.037 0.188-0.025 0.4-0.056 0.638-0.088 0.481-0.075 1.056-0.169 1.675-0.262 1.225-0.188 2.606-0.375 3.462-0.369 0.531 0 0.881 0.125 1.119 0.269 0.244 0.144 0.394 0.325 0.481 0.494 0.056 0.106 0.081 0.206 0.087 0.244 0 0.012 0 0.012 0 0.012 0.006 0.438-0.138 1.006-0.15 1.037l-0.038 0.125v0.131c0 0 0 0 0 0.206 0 0.225 0.069 0.381 0.125 0.481s0.106 0.163 0.15 0.212c0.087 0.094 0.15 0.144 0.212 0.194 0.119 0.094 0.231 0.175 0.344 0.262 0.225 0.175 0.444 0.381 0.55 0.575 0.075 0.125 0.106 0.231 0.106 0.369-0.006 0.238-0.056 0.363-0.144 0.506s-0.225 0.281-0.394 0.444c-0.112 0.119-0.25 0.231-0.406 0.475-0.087 0.137-0.181 0.356-0.188 0.637 0 0.238 0.069 0.4 0.125 0.512s0.113 0.194 0.169 0.262c0.106 0.131 0.194 0.231 0.288 0.325 0.175 0.188 0.325 0.375 0.4 0.525 0.050 0.1 0.069 0.181 0.069 0.262 0 0.044-0.006 0.075-0.031 0.131s-0.075 0.138-0.156 0.225c-0.156 0.181-0.425 0.387-0.694 0.613-0.181 0.156-0.375 0.306-0.569 0.587-0.106 0.163-0.231 0.4-0.231 0.725 0 0.206 0.056 0.406 0.113 0.531 0.056 0.131 0.1 0.2 0.125 0.244 0.050 0.094 0.069 0.113 0.106 0.288 0.025 0.113 0.044 0.281 0.044 0.531 0 0.113-0.012 0.188-0.038 0.244-0.019 0.056-0.050 0.106-0.112 0.175-0.119 0.137-0.45 0.356-1.131 0.544-0.45 0.125-1.050 0.238-1.812 0.325-1.018 0.112-2.325 0.175-3.975 0.175-3.081 0-5.212-0.325-6.887-0.725s-2.9-0.888-4.213-1.244c-0.869-0.238-1.781-0.4-2.813-0.4-0.263 0-0.538 0.012-0.819 0.031v1.881c0.288-0.025 0.563-0.038 0.819-0.038 0.831 0 1.55 0.131 2.325 0.337s1.606 0.5 2.612 0.806c2.019 0.613 4.694 1.225 8.975 1.225 2.231 0 3.894-0.113 5.156-0.319 1.256-0.212 2.138-0.512 2.794-1.012 0.431-0.325 0.744-0.775 0.881-1.244 0.081-0.262 0.106-0.525 0.106-0.769 0-0.538-0.069-0.944-0.175-1.262-0.025-0.075-0.050-0.144-0.081-0.206 0.019-0.012 0.038-0.031 0.056-0.044 0.281-0.238 0.712-0.55 1.069-1.050 0.231-0.331 0.431-0.788 0.431-1.313s-0.175-0.975-0.375-1.306c-0.156-0.225-0.306-0.413-0.437-0.569z"></path>
</svg>
