<!-- Generated by IcoMoon.io -->
<svg version="1.1" xmlns="http://www.w3.org/2000/svg" width="32" height="32" viewBox="0 0 32 32">
<title>tumblr</title>
<path d="M16.7 6.675v4.712h4.425v2.925h-4.425v4.781c0 1.081 0.056 1.775 0.169 2.081s0.325 0.55 0.637 0.738c0.413 0.25 0.881 0.369 1.413 0.369 0.944 0 1.881-0.306 2.819-0.919v2.944c-0.8 0.375-1.519 0.637-2.163 0.788s-1.344 0.225-2.094 0.225c-0.85 0-1.606-0.106-2.262-0.325-0.656-0.212-1.213-0.525-1.675-0.919-0.463-0.4-0.781-0.825-0.963-1.269-0.181-0.45-0.269-1.1-0.269-1.95v-6.538h-2.063v-2.638c0.731-0.238 1.363-0.581 1.881-1.025 0.525-0.444 0.944-0.975 1.256-1.6 0.319-0.625 0.531-1.412 0.65-2.375l2.663-0.006zM18.575 4.8h-6.181l-0.206 1.644c-0.094 0.744-0.25 1.331-0.463 1.762-0.206 0.406-0.469 0.738-0.8 1.019s-0.75 0.506-1.25 0.669l-1.294 0.419v5.875h2.063v4.669c0 1.1 0.131 1.969 0.4 2.644 0.287 0.731 0.787 1.4 1.481 2 0.65 0.556 1.425 0.988 2.313 1.281 0.844 0.275 1.8 0.419 2.844 0.419 0.894 0 1.738-0.094 2.525-0.275 0.775-0.181 1.625-0.488 2.538-0.919l1.075-0.506v-7.606l-2.906 1.906c-0.625 0.413-1.212 0.613-1.788 0.613-0.131 0-0.231-0.019-0.306-0.038-0.019-0.212-0.044-0.6-0.044-1.275v-2.906h4.425v-6.675h-4.425v-4.719zM16 0c8.837 0 16 7.162 16 16s-7.163 16-16 16c-8.838 0-16-7.163-16-16s7.162-16 16-16zM16 1.875c-1.906 0-3.756 0.375-5.5 1.106-1.681 0.712-3.194 1.731-4.487 3.025-1.3 1.3-2.319 2.806-3.025 4.487-0.738 1.738-1.106 3.588-1.106 5.5 0 1.906 0.375 3.756 1.106 5.5 0.712 1.681 1.731 3.194 3.025 4.488 1.3 1.3 2.806 2.319 4.487 3.025 1.738 0.738 3.587 1.106 5.5 1.106 1.906 0 3.756-0.375 5.5-1.106 1.681-0.712 3.194-1.731 4.488-3.025 1.3-1.3 2.319-2.806 3.025-4.488 0.738-1.738 1.106-3.587 1.106-5.5 0-1.906-0.375-3.756-1.106-5.5-0.712-1.681-1.731-3.194-3.025-4.487-1.3-1.3-2.806-2.319-4.488-3.025-1.744-0.731-3.594-1.106-5.5-1.106v0z"></path>
</svg>
