<!-- Generated by IcoMoon.io -->
<svg version="1.1" xmlns="http://www.w3.org/2000/svg" width="32" height="32" viewBox="0 0 32 32">
<title>twitter</title>
<path d="M21.438 7.1c1.212 0 2.419 0.431 3.35 1.369 1.2-0.131 1.969-0.694 2.956-1.031-0.419 1-1.006 1.825-1.8 2.444 0.981-0.050 1.631-0.431 2.444-0.644-0.644 0.944-1.481 1.7-2.313 2.444 0.375 8.063-6.012 13.875-13.331 13.875-2.344 0-4.788-0.594-7.131-1.906 2.794-0.081 5.050-0.7 6.694-1.925-2.044-0.538-3.7-1.45-4.25-3.475 0.194 0.106 0.512 0.15 0.85 0.15 0.413 0 0.844-0.063 1.088-0.15-2.019-0.725-3.406-2.087-3.6-4.631 0.663 0.15 1.181 0.45 1.925 0.512-1.213-0.719-2.631-4.050-1.288-6.175 2.4 2.356 4.994 4.525 9.525 4.762-0.55-3.444 2.163-5.619 4.881-5.619zM30.475 4.906l-3.219 1.094c-0.413 0.138-0.781 0.313-1.106 0.456-0.337 0.15-0.625 0.287-0.925 0.375-1.069-0.813-2.381-1.25-3.788-1.25v0c-1.931 0-3.813 0.856-5.031 2.275-0.769 0.9-1.244 1.988-1.4 3.162-3.031-0.563-4.95-2.219-6.906-4.138l-1.35-1.325-1.013 1.588c-0.781 1.231-0.987 2.844-0.581 4.531 0.006 0.037 0.019 0.075 0.025 0.113l-0.487-0.106 0.162 2.063c0.119 1.506 0.594 2.781 1.419 3.794l0.306 1.119c0.344 1.256 1.044 2.294 2.075 3.087-0.912 0.225-1.944 0.363-3.094 0.394l-5.537 0.156 4.838 2.7c1.256 0.7 2.581 1.238 3.925 1.587 1.294 0.344 2.631 0.512 3.95 0.512 2.069 0 4.075-0.413 5.969-1.219 1.863-0.794 3.519-1.944 4.906-3.394 2.6-2.719 4-6.288 4-10.125 0.738-0.675 1.444-1.381 2.031-2.244l2.331-3.369-2.556 0.663 1.056-2.5z"></path>
</svg>
