<!-- Generated by IcoMoon.io -->
<svg version="1.1" xmlns="http://www.w3.org/2000/svg" width="32" height="32" viewBox="0 0 32 32">
<title>vimeo</title>
<path d="M14.944 29.503c-1.856 0-3.35-1.081-4.438-3.219l-0.019-0.050c-0.019-0.044-1.719-4.344-2.644-8.637-0.45-2.088-0.912-3.644-1.419-4.763-0.525-1.162-1.094-1.806-1.6-1.806-0.213 0-0.45 0.1-0.706 0.3l-1.613 1.356-2.212-2.738 0.381-0.356c0.019-0.019 1.681-1.588 3.538-3.162 3.225-2.744 4.394-3.275 4.962-3.369 0.2-0.087 0.656-0.25 1.25-0.25 0.713 0 1.756 0.244 2.694 1.406 0.962 1.194 1.631 3.138 1.981 5.781 0.231 1.725 0.619 4.194 1.187 6.194 0.806 2.837 1.462 2.869 1.469 2.869 0.119 0 0.363-0.169 0.669-0.637l0.025-0.038c0.012-0.012 1.119-1.45 2.075-3.137 1.156-2.044 1.613-3.637 1.25-4.375-0.075-0.15-0.294-0.594-1.481-0.594-0.525 0-1.175 0.088-1.925 0.269l-1.012 0.238 0.35-0.975c0.025-0.075 0.669-1.838 2-3.619 1.819-2.419 4.037-3.694 6.425-3.694 0.969 0 1.981 0.212 3.006 0.625 0.606 0.244 1.775 1.175 2.306 3.112 0.694 2.531 0.35 7.088-5.238 14.438-0.344 0.488-6.219 8.831-11.262 8.831zM11.519 25.797c0.894 1.738 2.013 2.581 3.425 2.581 1.825 0 4.175-1.425 6.806-4.119 2.044-2.094 3.519-4.213 3.538-4.238l0.012-0.019c2.369-3.119 3.969-5.969 4.738-8.475 0.594-1.919 0.7-3.6 0.313-4.994-0.431-1.563-1.35-2.25-1.644-2.369-0.887-0.362-1.756-0.544-2.581-0.544-2.038 0-3.887 1.081-5.494 3.225-0.656 0.875-1.137 1.756-1.444 2.4 0.406-0.063 0.775-0.088 1.113-0.088 1.256 0 2.094 0.412 2.488 1.225 0.563 1.144 0.137 2.919-1.288 5.438-0.95 1.669-2.006 3.062-2.144 3.244-0.5 0.762-1.025 1.131-1.6 1.131-1.025 0-1.837-1.169-2.55-3.688-0.587-2.063-0.988-4.594-1.225-6.356-0.531-4.006-1.8-6.213-3.563-6.213-0.481 0-0.825 0.169-0.831 0.175l-0.1 0.050-0.113 0.013c-0.2 0.019-1.125 0.294-4.444 3.119-1.3 1.094-2.513 2.206-3.106 2.756l0.831 1.031 0.763-0.644c0.462-0.356 0.938-0.537 1.4-0.537 1.019 0 1.875 0.806 2.625 2.469 0.538 1.188 1.025 2.819 1.494 4.987 0.875 4.044 2.444 8.088 2.581 8.438z"></path>
</svg>
