<!-- Generated by IcoMoon.io -->
<svg version="1.1" xmlns="http://www.w3.org/2000/svg" width="1024" height="1024" viewBox="0 0 1024 1024">
<title></title>
<g id="icomoon-ignore">
</g>
<path fill="#000" d="M511-1c-282.8 0-512 229.2-512 512s229.2 512 512 512 512-229.2 512-512-229.2-512-512-512zM511 963c-61 0-120.2-12-176-35.4-21.2-9-41.6-19.6-61.2-31.6 4-1.8 8.2-3.4 12.4-5 37.4-15.2 76.2-28.8 105.6-49 18.8-12.8 31.2-25 38.8-42 7.4-16.8 10-37.4 11.2-67.4 0.4-7.2 1-16.2 1-25 0-9-0.6-17.6-3.2-24.8-2.6-6.6-7.4-10.8-11.8-14.6-4.4-3.6-8.4-7-10.6-10.4-14.2-22-19.6-46-24.8-80.6l-0.8-5h-5c0 0 0 0-0.2 0-8.8 0-15-4-19.8-10.8s-7.4-16.2-7.4-25.6c0-13.2 5.2-25.2 14-29.6l4-2-1-4.4c-8.6-39.4-19.2-83.6-19.2-125.2 0-29.8 5.4-57.8 20.4-82 21-34.2 70.8-53.4 118-56.6 4.4-0.4 9-0.4 13.4-0.4 17 0 33.4 2.4 46.8 7.4 13.4 5.2 23.4 12.8 29 23.4l1.6 3.2h3.6c29.6 0.6 47.8 13 59.8 32.6s16.8 47.2 16.8 76.8c0 41.6-9.8 86.6-21 118l-0.2 0.6v0.6c0 0.6-0.2 1.2-0.2 2 0 4 1.8 7.6 3.8 10 3.2 3.6 6.6 5.8 9 8.2 2.6 2.6 4.2 4.8 5 9 0.4 2.2 0.6 4.6 0.6 7 0 8.8-2.6 18-7.4 24.6s-11 10.8-19.4 10.8c-0.4 0-1 0-1.4 0l-5.6-0.2-0.6 5.6c-5 46-20.2 81-45.6 105l-2 2 0.2 2.8c0.6 6.4 0.8 12.8 0.8 19.2 0 18.6-1.8 36.4-1.8 53 0 10.4 0.8 20.2 3.2 29.6 6.2 22.4 23.8 40 44.2 54 20.6 14 44.2 24.8 64 33 18.8 7.8 37.4 14.8 55 22-19.4 12-39.6 22.4-60.8 31.4-55 23.8-114.2 35.8-175.2 35.8zM830.6 830.6c-10 10-20.4 19.6-31.2 28.4-2.2-1.2-4.4-2.4-6.8-3.4-26-12.2-54-21.8-80.2-33.2-29.4-12.6-56.2-27.4-74.8-48.8v-0.2c0-18.6-3.6-35.4-3.4-49.8 0-4.8 0.4-9.4 1.4-13.8 1.2-5.8 5.2-12.4 10.4-19.4 5-7 10.8-14.4 15-22.8 8.4-17.2 12.4-32.4 17.6-50.2 11.4-7.4 20.6-19.8 27.2-34.2 7-15.4 11.2-33.4 11.2-51.4 0-16-3.4-32-11.2-45.6 9.2-31.2 16.2-71.8 16.2-111 0-38-6.4-74.8-24.2-100.6 0 0-13.2-13-39.8-32.6-0.6-0.4-1.2-1-1.6-1.4-13.2-10.4-26.2-8.8-37.8-14.4-15.2-7.4-24.6-23.8-43.4-29.6-114.4-35.6-217.2 19-249 93-20.2 46.8-19.6 95.8-11.8 150.2 2 13.4 11 30.6 9.8 45.4-1 13.2-13 23.2-13.8 41.6-1.8 40.2 16.4 67.4 39.6 87 3.4 16.2 7.6 29.6 13.8 43.4 8.4 18.8 26 34.6 29.6 49.4 4.4 18 3 54.8-2 69.2-12.8 36.2-98.2 58.2-140.4 77-7.6 3.4-15 7-22.4 10.4-12.6-10.2-24.8-21.2-36.6-32.8-42.2-41.4-74.8-89.6-97.6-143.4-23.4-55.8-35.4-115-35.4-176s12-120.2 35.4-176c22.8-53.8 55.4-102.2 96.8-143.6 41.8-41.6 90-74.2 143.8-97 55.8-23.4 115-35.4 176-35.4s120.2 12 176 35.4c53.8 22.8 102.2 55.4 143.6 96.8 41.6 41.6 74.2 89.8 96.8 143.6 23.6 55.6 35.4 114.8 35.4 176 0 61-12 120.2-35.4 176-22.6 54-55.2 102.2-96.8 143.8z"></path>
</svg>
