<!-- Generated by IcoMoon.io -->
<svg version="1.1" xmlns="http://www.w3.org/2000/svg" width="32" height="32" viewBox="0 0 32 32">
<title>xing</title>
<path d="M12.375 10.131h-2.325l0.269 0.469 1.213 2.119c0.156 0.275 0.238 0.613 0.238 0.956 0 0.331-0.075 0.662-0.231 0.931l-0.006 0.012-0.006 0.012-2.906 4.838h2.444l3.356-5.863-2.044-3.475zM16.825 18.131c0-0.331 0.075-0.663 0.225-0.931l6.275-11.5h-2.394l-6.806 12.437 0.081 0.15 4.381 7.944h2.375l-3.913-7.169c-0.15-0.269-0.225-0.6-0.225-0.931zM16 0c8.837 0 16 7.162 16 16s-7.163 16-16 16c-8.838 0-16-7.163-16-16s7.162-16 16-16zM16 1.875c-1.906 0-3.756 0.375-5.5 1.106-1.681 0.712-3.194 1.731-4.487 3.025-1.3 1.3-2.319 2.806-3.025 4.487-0.738 1.738-1.106 3.588-1.106 5.5 0 1.906 0.375 3.756 1.106 5.5 0.712 1.681 1.731 3.194 3.025 4.488 1.3 1.3 2.806 2.319 4.487 3.025 1.738 0.738 3.587 1.106 5.5 1.106 1.906 0 3.756-0.375 5.5-1.106 1.681-0.712 3.194-1.731 4.488-3.025 1.3-1.3 2.319-2.806 3.025-4.488 0.738-1.738 1.106-3.587 1.106-5.5 0-1.906-0.375-3.756-1.106-5.5-0.712-1.681-1.731-3.194-3.025-4.487-1.3-1.3-2.806-2.319-4.488-3.025-1.744-0.731-3.594-1.106-5.5-1.106v0z"></path>
</svg>
