<!-- Generated by IcoMoon.io -->
<svg version="1.1" xmlns="http://www.w3.org/2000/svg" width="32" height="32" viewBox="0 0 32 32">
<title>youtube</title>
<path d="M10.019 3.556c0.375 1.394 0.762 2.775 1.125 4.181 0.162-0.313 0.231-0.675 0.319-1.019 0.262-1.019 0.538-2.112 0.806-3.163 0.537 0 1.075 0 1.613 0-0.55 1.837-1.119 3.719-1.675 5.606-0.081 0.269-0.219 0.531-0.256 0.787-0.050 0.338 0 0.744 0 1.106 0 1.088 0.019 2.175-0.019 3.269-0.525 0-1.050 0-1.569 0 0-0.744 0-1.463 0-2.188 0-0.731 0.075-1.481 0-2.188-0.056-0.544-0.269-1.119-0.425-1.656-0.456-1.581-1.075-3.15-1.569-4.669-0.025-0.031-0.025-0.050 0.019-0.063 0.544-0.006 1.088-0.006 1.631-0.006zM15.75 6.231c1.625-0.181 2.387 0.844 2.462 2.481 0.025 0.581 0 1.175 0 1.656 0 1.106 0.044 2.331-0.319 3.013-0.506 0.956-1.681 1.306-2.719 0.869-0.425-0.175-0.775-0.488-0.975-0.912-0.325-0.688-0.275-2.025-0.275-3.056 0-1.912-0.075-3.206 1.081-3.844 0.2-0.1 0.438-0.175 0.744-0.206zM15.369 8.313c-0.081 0.769 0 1.906 0 2.631 0 0.956-0.094 1.95 0.488 2.144 0.587 0.194 0.862-0.281 0.912-0.787 0.069-0.675 0-1.669 0-2.463 0-1.025 0.188-2.406-0.744-2.338-0.431 0.037-0.613 0.381-0.656 0.813zM19.469 6.294c0.462 0 0.919 0 1.381 0 0.038 1.694 0.019 3.45 0.019 5.263 0 0.438-0.106 1.425 0.212 1.55 0.4 0.156 1.019-0.438 1.081-0.7 0.050-0.206 0-0.512 0-0.762 0-1.719 0-3.644 0-5.35 0.469 0 0.931 0 1.4 0 0.038 2.625 0.038 5.4 0 8.025-0.469 0-0.931 0-1.4 0-0.012-0.269 0.025-0.594-0.019-0.825-0.181 0.106-0.35 0.35-0.594 0.531-0.481 0.356-1.575 0.694-1.95-0.063-0.194-0.394-0.169-1.094-0.169-1.781 0-1.863 0-4.175 0-5.819 0.012-0.019 0.006-0.063 0.038-0.069zM24.275 22.194c-0.675 0.075-0.675 1.094-0.637 1.919 0.45 0.038 1.050 0.038 1.5 0 0.025-0.931 0.069-2.025-0.863-1.919zM19.425 23.012c-0.025-0.256-0.144-0.594-0.288-0.706-0.325-0.25-1.012-0.019-1.1 0.288-0.094 0.306 0 0.875 0 1.256v3.794c0.244 0.238 0.544 0.481 0.95 0.35 0.231-0.075 0.406-0.425 0.444-0.794 0.056-0.613 0-1.344 0-2.094-0.006-0.756 0.050-1.513-0.006-2.094zM25.75 0h-19.5c-3.438 0-6.25 2.813-6.25 6.25v19.5c0 3.438 2.813 6.25 6.25 6.25h19.5c3.438 0 6.25-2.813 6.25-6.25v-19.5c0-3.438-2.813-6.25-6.25-6.25zM10.625 19.656h-1.762c-0.069 3.156 0.025 6.462-0.044 9.619-0.506 0.050-1.112 0.006-1.656 0.025-0.050-3.163-0.006-6.419-0.025-9.619-0.55-0.050-1.2-0.006-1.788-0.025v-1.525c0-0.038 0.019-0.056 0.044-0.069h5.231c0.031 0.488 0.031 1.119 0 1.594zM15.213 29.275c-0.456 0.038-1.069 0.038-1.525 0v-0.837c-0.169 0.119-0.369 0.344-0.619 0.531-0.45 0.337-1.475 0.744-1.962 0.087-0.144-0.194-0.219-0.506-0.244-0.819-0.181-2.181 0.094-5.031-0.025-7.256 0-0.038 0.019-0.056 0.044-0.069h1.456c0.038 1.794 0.025 3.7 0.025 5.606 0 0.544-0.113 1.406 0.262 1.5 0.419 0.1 0.994-0.462 1.056-0.725 0.050-0.212 0-0.55 0-0.819 0-1.781-0.019-3.825 0.025-5.556 0.494 0.012 1.044-0.031 1.5 0.025l0.006 8.331zM20.944 24.906c0 0.694 0 1.319 0 1.944 0 0.981-0.050 1.906-0.575 2.319-0.788 0.619-1.925-0.050-2.337-0.637v0.75c-0.462 0.050-1.019 0.006-1.525 0.025v-11.169c-0.044 0.006 0.006-0.063 0.025-0.069h1.475c0.050 1.156 0.006 2.406 0.025 3.594 0.45-0.544 1.512-1.212 2.319-0.619 0.781 0.581 0.594 2.35 0.594 3.863zM24.081 27.975c0.906 0.387 1.131-0.694 1.038-1.587h1.544c0.113 1.475-0.275 2.337-1.125 2.781-0.819 0.425-1.962 0.294-2.625-0.262-0.875-0.738-0.794-2.131-0.794-3.794 0-1.25-0.106-2.475 0.35-3.262 0.35-0.606 1.106-1.1 2.181-1.012 2.025 0.163 2.125 2.231 2.006 4.569h-3.025c0.081 0.925-0.231 2.275 0.45 2.569zM30.125 16h-28.25v-9.75c0-1.162 0.456-2.256 1.288-3.087s1.925-1.288 3.087-1.288h19.5c1.163 0 2.256 0.456 3.087 1.288s1.288 1.925 1.288 3.087v9.75z"></path>
</svg>
